<svg xmlns="http://www.w3.org/2000/svg" viewBox="0 0 96.46 104.01"><g id="Layer_2" data-name="Layer 2"><g id="Bunny"><path d="M93.05,68.61s6.55,10,1.48,14.87-10-6.12-10-6.12l-3.6-6.22,6.17-11A91.06,91.06,0,0,1,93.05,68.61Z" fill="#efefef"/><path d="M14.57,95.1h13.7a0,0,0,0,1,0,0v2.06A6.85,6.85,0,0,1,21.42,104h0a6.85,6.85,0,0,1-6.85-6.85V95.1a0,0,0,0,1,0,0Z" fill="#fff"/><path d="M70.86,95.1H84.24a0,0,0,0,1,0,0v2.22A6.69,6.69,0,0,1,77.55,104h0a6.69,6.69,0,0,1-6.69-6.69V95.1A0,0,0,0,1,70.86,95.1Z" fill="#efefef"/><path d="M32.21,19.59h0a59.48,59.48,0,0,1,32.7,0l.09,0A27.67,27.67,0,0,1,84.3,39.5c2.25,9,4.5,38.07,4.5,46.68,0,0,1.12,17.83-40.16,17.83s-40-17.83-40-17.83,0-12.42.33-17.82a168,168,0,0,1,4-28.77,27.7,27.7,0,0,1,19.26-20Z" fill="#f2f2f2"/><path d="M32.21,19.59h0a59.48,59.48,0,0,1,32.7,0l.09,0A27.67,27.67,0,0,1,84.3,39.5c2.25,9,4.5,38.07,4.5,46.68,0,0,1.12,17.83-40.16,17.83s-40-17.83-40-17.83,0-12.42.33-17.82a168,168,0,0,1,4-28.77,27.7,27.7,0,0,1,19.26-20Z" fill="#fff"/><rect x="24.2" y="52.53" width="13.41" height="8.93" rx="4.46" fill="#ffd2d2"/><rect x="71.48" y="52.53" width="13.41" height="8.93" rx="4.46" fill="#ffd2d2"/><circle cx="72.48" cy="46.09" r="4.44"/><circle cx="36.83" cy="46.09" r="4.44"/><path d="M29.53,21.93a1.1,1.1,0,0,1-1-.64c-3.07-8.16-3.89-14.73-2.2-17.58A3.41,3.41,0,0,1,29,2a3.77,3.77,0,0,1,.58,0c4.54,0,8,8.53,9.79,16.51a1,1,0,0,1-.74,1.18l-8.94,2.22A.62.62,0,0,1,29.53,21.93Z" fill="#ffd2d2"/><path d="M29.61,4c2.19,0,5.45,4.8,7.62,14l-7.12,1.77c-2.87-7.91-3.11-13.23-2.05-15,.14-.22.34-.57,1.25-.7l.3,0m0-4a6.58,6.58,0,0,0-.87.06C19.85,1.33,24.42,16,26.67,22a3.08,3.08,0,0,0,2.86,1.94,2.56,2.56,0,0,0,.67-.08l9-2.22a3,3,0,0,0,2.2-3.55C40.09,12.35,36.57,0,29.61,0Z" fill="#fff"/><path d="M68.13,22.58a1,1,0,0,1-.24,0l-9-2.23a1,1,0,0,1-.74-1.17C60,11.17,63.46,2.64,68,2.64a3.86,3.86,0,0,1,.58,0,3.44,3.44,0,0,1,2.69,1.66c1.69,2.86.86,9.43-2.2,17.59A1,1,0,0,1,68.13,22.58Z" fill="#ffd2d2"/><path d="M68,.64v4l.3,0c.91.13,1.11.48,1.24.7,1.07,1.8.82,7.12-2,15l-7.12-1.77c2.16-9.18,5.43-14,7.62-14v-4m0,0C61,.64,57.51,13,56.25,18.72a3,3,0,0,0,2.21,3.55l8.94,2.22a3.1,3.1,0,0,0,.73.09,3,3,0,0,0,2.81-1.95C73.18,16.67,77.75,2,68.86.7A6.33,6.33,0,0,0,68,.64Z" fill="#fff"/><rect x="32.39" y="68.36" width="44.54" height="31.75" rx="15.88" fill="#f4f4f4"/><path d="M3.39,70.74s-6.54,10-1.46,14.86,10-6.13,10-6.13l3.58-6.23-6.19-11A89.34,89.34,0,0,0,3.39,70.74Z" fill="#fff"/><line x1="54.62" y1="90.64" x2="59.07" y2="95.1" fill="none" stroke="#ffd2d2" stroke-linecap="round" stroke-miterlimit="10"/><line x1="59.07" y1="90.64" x2="54.62" y2="95.1" fill="none" stroke="#ffd2d2" stroke-linecap="round" stroke-miterlimit="10"/><polyline points="51.78 48.38 56.4 50.73 61.42 48.24" fill="none" stroke="#ffd2d2" stroke-linecap="round" stroke-miterlimit="10" stroke-width="1.5"/><path d="M56.4,50.73v3.09a2.83,2.83,0,0,1-3,2.86A3.2,3.2,0,0,1,51.26,56" fill="none" stroke="#ffd2d2" stroke-linecap="round" stroke-miterlimit="10" stroke-width="1.5"/><path d="M56.4,53.82a3,3,0,0,0,3.2,2.86A3.13,3.13,0,0,0,61.79,56" fill="none" stroke="#ffd2d2" stroke-linecap="round" stroke-miterlimit="10" stroke-width="1.5"/></g></g></svg>