<svg xmlns="http://www.w3.org/2000/svg" viewBox="0 0 96.46 97.19"><g id="Layer_2" data-name="Layer 2"><g id="Duckling"><path d="M93.05,61.8s6.55,10,1.48,14.86-10-6.11-10-6.11l-3.6-6.22,6.17-11A89.65,89.65,0,0,1,93.05,61.8Z" fill="#efd565"/><rect x="11.89" y="92.04" width="23.81" height="5.15" rx="2.58" fill="#ffbb4d"/><rect x="65.42" y="92.04" width="23.28" height="5.15" rx="2.58" fill="#ffbb4d"/><path d="M32.21,12.77h0a59.57,59.57,0,0,1,32.7,0l.09,0A27.64,27.64,0,0,1,84.3,32.68c2.25,9,4.5,38.08,4.5,46.69,0,0,1.12,17.82-40.16,17.82s-40-17.82-40-17.82,0-12.43.33-17.82a168,168,0,0,1,4-28.78,27.7,27.7,0,0,1,19.26-20Z" fill="#f2f2f2"/><path d="M32.21,12.77h0a59.57,59.57,0,0,1,32.7,0l.09,0A27.64,27.64,0,0,1,84.3,32.68c2.25,9,4.5,38.08,4.5,46.69,0,0,1.12,17.82-40.16,17.82s-40-17.82-40-17.82,0-12.43.33-17.82a168,168,0,0,1,4-28.78,27.7,27.7,0,0,1,19.26-20Z" fill="#ffe36c"/><circle cx="72.48" cy="39.27" r="4.44"/><circle cx="36.83" cy="39.27" r="4.44"/><path d="M3.39,63.92s-6.54,10-1.46,14.87,10-6.14,10-6.14l3.58-6.22-6.19-11A89.34,89.34,0,0,0,3.39,63.92Z" fill="#ffe36c"/><line x1="54.62" y1="83.82" x2="59.07" y2="88.28" fill="none" stroke="#ffbb4d" stroke-linecap="round" stroke-miterlimit="10"/><line x1="59.07" y1="83.82" x2="54.62" y2="88.28" fill="none" stroke="#ffbb4d" stroke-linecap="round" stroke-miterlimit="10"/><circle cx="30.68" cy="51.75" r="6.88" fill="#ffa052"/><circle cx="78.33" cy="51.75" r="6.88" fill="#ffa052"/><path d="M61.33,51.64h-11A5.71,5.71,0,0,1,44.64,46h0c0-3.13,8.06-5.21,11.19-5.21h0C59,40.74,67,42.82,67,46h0A5.71,5.71,0,0,1,61.33,51.64Z" fill="#ffbb4d"/><path d="M47.29,10.5S47.71,4.28,51.56.21a.71.71,0,0,1,1.2.41A26.08,26.08,0,0,0,55.41,9a5.37,5.37,0,0,0,3.73,2.43" fill="#ffe36c"/><path d="M54.35,10.75A26.12,26.12,0,0,1,46.9,2.58a.7.7,0,0,0-1.26.08,19.16,19.16,0,0,0-.78,5,3.46,3.46,0,0,1-3,3.23" fill="#ffe36c"/></g></g></svg>