<svg xmlns="http://www.w3.org/2000/svg" xmlns:xlink="http://www.w3.org/1999/xlink" viewBox="0 0 90.53 94.64"><defs><clipPath id="clip-path"><path d="M7.45,46.94s-12,41.92,41.49,38.79c45.46-2.66,33.21-38.8,33.21-38.8h0A18.73,18.73,0,0,0,78,16.78l0,0a12.94,12.94,0,0,0,.49-3.48A13.27,13.27,0,0,0,53.14,7.75H39.39a13.26,13.26,0,0,0-25.32,5.52,14.07,14.07,0,0,0,.23,2.35h0A18.74,18.74,0,0,0,7.44,46.93Z" fill="none"/></clipPath></defs><g id="Layer_2" data-name="Layer 2"><g id="Frog"><path d="M62.07,76.65H75.69a0,0,0,0,1,0,0v2.27a6.81,6.81,0,0,1-6.81,6.81h0a6.81,6.81,0,0,1-6.81-6.81V76.65A0,0,0,0,1,62.07,76.65Z" fill="#4b9b3a"/><path d="M87.64,55.66s6,10.29.68,14.92-9.66-6.65-9.66-6.65l-3.25-6.4,6.75-10.68A90.15,90.15,0,0,1,87.64,55.66Z" fill="#4b9b3a"/><path d="M7.45,46.94s-12,41.92,41.49,38.79c45.46-2.66,33.21-38.8,33.21-38.8h0A18.73,18.73,0,0,0,78,16.78l0,0a12.94,12.94,0,0,0,.49-3.48A13.27,13.27,0,0,0,53.14,7.75H39.39a13.26,13.26,0,0,0-25.32,5.52,14.07,14.07,0,0,0,.23,2.35h0A18.74,18.74,0,0,0,7.44,46.93Z" fill="#49b236"/><path d="M14,76.65H26.73a0,0,0,0,1,0,0v2.71a6.37,6.37,0,0,1-6.37,6.37h0A6.37,6.37,0,0,1,14,79.36V76.65A0,0,0,0,1,14,76.65Z" fill="#49b236"/><g clip-path="url(#clip-path)"><rect x="25.3" y="50.09" width="44.55" height="44.55" rx="10.8" fill="#9cd43d"/></g><circle cx="65.35" cy="18.9" r="4.44"/><circle cx="29.74" cy="18.9" r="4.44"/><path d="M2.46,56s-5.53,10.56,0,14.93,9.35-7.08,9.35-7.08l2.95-6.54L7.53,46.93A88.21,88.21,0,0,0,2.46,56Z" fill="#49b236"/><path d="M43.45,23.35H53.83a3,3,0,0,1,2.73,4.26c-1.08,2.31-3.32,4.69-7.92,4.69s-6.84-2.38-7.92-4.69A3,3,0,0,1,43.45,23.35Z" fill="#fff"/><ellipse cx="76.18" cy="30.77" rx="7.83" ry="7.43" fill="#9cd43d"/><ellipse cx="21.1" cy="30.77" rx="7.83" ry="7.43" fill="#9cd43d"/><line x1="47.54" y1="72.36" x2="52" y2="76.82" fill="none" stroke="#49b236" stroke-linecap="round" stroke-miterlimit="10"/><line x1="52" y1="72.36" x2="47.54" y2="76.82" fill="none" stroke="#49b236" stroke-linecap="round" stroke-miterlimit="10"/></g></g></svg>