<svg width="1366" height="768" viewBox="0 0 1366 768" fill="none" xmlns="http://www.w3.org/2000/svg">
<path fill-rule="evenodd" clip-rule="evenodd" d="M43.6734 0C40.9544 1.64137 38.1177 3.10515 35.1756 4.37179C23.8196 9.25877 11.9655 11.1565 0 11.7143V13C12.0892 12.4432 24.0776 10.5144 35.5949 5.56068C39.2313 3.99305 42.705 2.12445 46 0H43.6734Z" fill="#F5F8ED"/>
<path fill-rule="evenodd" clip-rule="evenodd" d="M83.4781 0C71.6221 15.5158 55.7166 27.5092 37.5373 34.0775C25.3219 38.4914 12.7081 40.6402 0 41.6768V43C12.8078 41.9634 25.5372 39.7952 37.875 35.3371C56.5958 28.5703 72.9387 16.1201 85 0H83.4781Z" fill="#F5F8ED"/>
<path fill-rule="evenodd" clip-rule="evenodd" d="M110.542 -0.00273132C110.209 0.528215 109.892 1.05967 109.553 1.59062C91.3613 30.0533 64.5535 49.8724 32.0382 58.9046C21.4325 61.8471 10.5496 63.9105 0 65.5166V66.8227C10.6329 65.2161 21.6097 63.1348 32.31 60.1667C65.099 51.0602 92.1285 31.0655 110.482 2.34736C110.982 1.56655 111.46 0.784727 111.944 -0.00273132H110.542Z" fill="#F5F8ED"/>
<path fill-rule="evenodd" clip-rule="evenodd" d="M149.746 457.037C160.734 468.125 179.754 465.987 196.568 464.099C229.884 460.348 264.028 453.824 300.953 444.136C311.875 441.274 322.946 437.937 333.651 434.724C356.735 427.786 380.597 420.612 404.503 417.586C439.887 413.124 475.864 415.886 509.686 419.086C540.681 422.037 576.347 423.849 607.374 408.111C630.873 396.186 650.28 375.092 663.494 347.111C676.033 320.555 681.734 289.836 679.535 260.616C676.739 223.361 664.19 190.585 644.201 168.329C636.055 159.261 626.42 151.635 617.104 144.26C602.661 132.828 587.726 121.01 578.51 103.76C564.404 77.3597 569.859 42.1913 590.932 23.7045C617.368 0.50927 652.907 15.7413 666.963 23.3727C676.703 28.654 686.092 34.8912 695.162 40.9165C713.18 52.8784 731.803 65.2478 753.691 70.4538C782.65 77.3351 812.419 74.6164 841.187 71.9847L843.988 71.7287C901.027 66.5294 959.711 66.0481 995.595 120.878C1009.4 141.973 1017.54 167.179 1025.42 191.554C1028.48 201.03 1031.65 210.829 1035.1 220.248C1037.02 225.492 1039.05 230.792 1041.01 235.923C1050.89 261.741 1061.1 288.443 1061.35 317.229C1061.66 354.111 1042.52 383.855 1022.89 411.149L1018.61 417.098C998.419 445.111 979.354 471.574 963.658 503.073C961.291 507.837 959.014 512.649 956.587 517.749C944.716 542.786 932.445 568.673 911.755 583.188C887.276 600.36 856.55 595.112 829.44 590.474L827.805 590.202C794.019 584.437 760.88 580.213 727.035 591.825C709.122 597.949 692.266 607.426 675.961 616.586C662.678 624.051 648.946 631.761 634.803 637.562C630.778 639.211 626.762 640.849 622.755 642.472C594.697 653.849 568.201 664.601 542.379 681.339C518.83 696.601 498.85 714.885 477.695 734.264C473.41 738.186 469.112 742.113 464.772 746.04C454.799 755.036 445.178 762.337 435.763 768H444.945C452.41 762.972 459.96 757.012 467.627 750.1C471.98 746.163 476.283 742.226 480.572 738.299C501.586 719.063 521.425 700.902 544.656 685.839C570.123 669.337 596.441 658.662 624.298 647.352C628.31 645.724 632.335 644.101 636.365 642.437C650.749 636.538 664.6 628.761 677.996 621.24C694.133 612.162 710.812 602.797 728.356 596.787C761.295 585.497 793.874 589.649 827.127 595.327L828.761 595.609C856.641 600.376 888.255 605.777 914.177 587.586C935.901 572.349 948.473 545.837 960.635 520.196C963.035 515.122 965.302 510.337 967.661 505.625C983.16 474.511 1002.1 448.211 1022.16 420.374L1026.44 414.424C1045.72 387.624 1066.26 355.786 1065.93 317.18C1065.69 287.341 1055.28 260.155 1045.22 233.861C1043.26 228.748 1041.24 223.46 1039.33 218.261C1035.92 208.941 1032.77 199.198 1029.72 189.773C1021.74 165.047 1013.48 139.486 999.275 117.785C962.001 60.8231 901.938 61.2419 843.623 66.5539L840.823 66.8099C812.365 69.4104 782.95 72.104 754.624 65.3722C733.469 60.3418 715.993 48.7347 697.484 36.4416C688.323 30.3605 678.852 24.0665 668.944 18.6905C654.123 10.6469 616.581 -5.36493 588.127 19.6028C565.242 39.6784 559.295 77.8292 574.59 106.448C584.307 124.635 599.647 136.772 614.481 148.516C623.643 155.766 633.118 163.267 640.991 172.029C660.201 193.416 672.268 225.03 674.973 261.054C679.462 320.818 650.239 380.673 605.493 403.374C575.469 418.611 540.494 416.812 510.069 413.924C476.019 410.687 439.787 407.912 403.996 412.437C379.753 415.498 355.718 422.724 332.479 429.711C321.807 432.911 310.768 436.237 299.919 439.073C263.184 448.712 229.234 455.212 196.085 458.936C180.238 460.712 162.279 462.737 152.797 453.161C147.911 448.237 145.459 440.599 145.304 429.812C144.915 402.399 154.67 373.655 174.296 344.393C178.204 338.561 182.228 332.692 186.118 327.011C201.682 304.291 217.778 280.799 230.285 254.71C244.175 225.754 257.704 191.324 271.655 149.461C285.767 107.111 290.998 69.16 287.635 33.4412C286.517 21.5167 284.211 10.4841 281.082 -0.00273132H276.268C279.536 10.6162 281.932 21.7666 283.083 33.9916C286.362 68.8846 281.221 106.053 267.369 147.629C253.491 189.273 240.045 223.486 226.261 252.236C213.927 277.948 197.952 301.273 182.5 323.829C178.599 329.523 174.568 335.405 170.644 341.254C150.384 371.461 140.319 401.286 140.724 429.898C140.896 442.212 143.848 451.086 149.746 457.037Z" fill="#F5F8ED"/>
<path fill-rule="evenodd" clip-rule="evenodd" d="M305.888 762.665C299.919 760.412 293.749 758.077 287.74 755.927C258.849 745.585 226.149 732.272 203.749 704.978C186.841 684.375 182.361 656.788 178.026 630.103C176.842 622.801 175.618 615.26 174.157 607.984C170.584 590.187 166.181 572.338 160.695 553.425C159.011 547.599 157.416 541.511 155.876 535.613C152.563 522.935 149.134 509.837 144.387 497.761C137.25 479.637 123.298 474.598 111.938 472.224C97.6312 469.249 82.4677 465.649 68.2167 457.386C45.9609 444.474 29.8252 422.149 17.4415 387.136C11.111 369.23 5.44123 350.68 0 332.506V348.536C4.14672 362.105 8.48149 375.749 13.1896 389.061C25.8288 424.812 43.1483 448.673 66.1267 462C80.9341 470.586 96.4692 474.287 111.109 477.337C126.545 480.549 135.244 487.286 140.196 499.873C144.826 511.637 148.211 524.574 151.479 537.087C153.03 543.011 154.637 549.15 156.343 555.038C161.784 573.798 166.147 591.498 169.688 609.136C171.128 616.314 172.339 623.8 173.518 631.04C177.97 658.452 182.578 686.802 200.392 708.51C223.554 736.737 256.908 750.336 286.362 760.873C292.332 763.013 298.485 765.338 304.437 767.59C304.799 767.723 305.165 767.862 305.526 768H320.145C315.365 766.249 310.612 764.452 305.888 762.665Z" fill="#F5F8ED"/>
<path fill-rule="evenodd" clip-rule="evenodd" d="M707.101 15.8412C730.323 29.2976 752.247 42.0096 777.923 47.041C804.97 52.3356 832.117 47.7481 858.363 43.3034C865.343 42.1222 872.56 40.9037 879.663 39.8909C914.833 34.8533 941.047 38.0416 964.624 50.2042C987.75 62.1348 1008.07 82.3543 1021.83 107.141C1032.92 127.129 1038.77 150.223 1044.43 172.56C1047.34 184.061 1050.36 195.948 1054.05 207.267C1056.68 215.361 1059.75 223.673 1062.71 231.71C1072.59 258.58 1082.82 286.355 1081.46 315.336C1079.35 360.155 1054.76 393.892 1030.97 426.524C1016.89 445.848 1002.31 465.837 992.326 488.074C973.63 529.76 967.583 566.45 974.354 597.125C975.943 604.323 977.842 611.363 979.677 618.163C987.035 645.473 993.997 671.273 978.197 699.499C972.041 710.502 965.147 720.901 958.49 730.952C950.672 742.748 942.681 754.826 935.81 768H937.144C943.906 755.139 951.742 743.301 959.401 731.735C966.085 721.664 972.984 711.234 979.167 700.201C995.24 671.462 988.214 645.386 980.77 617.789C978.944 611 977.054 603.985 975.465 596.812C968.763 566.451 974.787 530.063 993.351 488.662C1003.28 466.549 1017.81 446.624 1031.86 427.349C1055.76 394.555 1080.47 360.649 1082.6 315.404C1083.97 286.129 1073.7 258.211 1063.76 231.211C1060.81 223.186 1057.75 214.886 1055.13 206.816C1051.45 195.542 1048.45 183.679 1045.53 172.204C1039.85 149.779 1033.98 126.591 1022.8 106.454C1008.91 81.4542 988.428 61.0601 965.102 49.0291C941.315 36.7539 914.924 33.5411 879.517 38.6032C872.405 39.616 865.179 40.8407 858.194 42.0224C832.026 46.4476 804.979 51.0223 778.124 45.76C752.611 40.7603 730.755 28.097 707.624 14.6851C704.255 12.7343 700.885 10.7785 697.493 8.84056C692.216 5.83511 686.848 2.84144 681.393 -0.00273132H678.642C684.862 3.17782 690.982 6.57905 696.983 10.0028C700.376 11.9346 703.745 13.8904 707.101 15.8412Z" fill="#F5F8ED"/>
<path fill-rule="evenodd" clip-rule="evenodd" d="M599.049 162.826C584.949 149.95 570.37 136.638 559.775 119.545C543.444 93.188 542.661 56.631 557.777 26.4193C563.074 15.8311 569.829 6.93148 577.612 0H575.791C568.363 6.88131 561.9 15.5495 556.78 25.7819C541.451 56.4252 542.256 93.5249 558.833 120.289C569.519 137.538 584.17 150.908 598.33 163.831C607.082 171.825 616.14 180.088 624.128 189.163C644.673 212.489 655.441 244.963 653.671 278.252C651.846 312.426 637.222 344.12 613.545 365.202C577.848 396.977 534.004 394.47 491.603 392.058C468.769 390.757 445.154 389.408 423.074 393.426C416.469 394.627 409.791 395.59 403.329 396.514C396 397.565 388.416 398.651 380.917 400.102C367.721 402.651 354.425 405.851 341.569 408.951C337.029 410.039 332.49 411.139 327.945 412.201L325.334 412.815C296.632 419.564 264.097 427.227 234.261 423.902C216.553 421.927 202.908 414.814 195.835 403.876C190.446 395.533 188.874 385.108 191.169 372.889C195.197 351.401 206.398 332.533 217.226 314.282C223.127 304.345 229.221 294.07 234.028 283.564C242.934 264.082 249.856 243.088 256.546 222.788C258.219 217.72 259.885 212.658 261.58 207.626C264.319 199.513 267.202 191.307 269.991 183.37C275.68 167.194 281.564 150.47 286.481 133.632C300.266 86.4259 303.46 43.3999 296.243 0H295.076C302.311 43.2632 299.138 86.151 285.392 133.226C280.487 150.019 274.614 166.732 268.931 182.889C266.136 190.832 263.251 199.038 260.513 207.164C258.813 212.194 257.145 217.263 255.474 222.332C248.789 242.601 241.884 263.557 233.011 282.969C228.238 293.408 222.154 303.652 216.276 313.558C205.386 331.915 194.124 350.889 190.047 372.62C187.685 385.214 189.324 395.989 194.914 404.639C202.181 415.889 216.116 423.189 234.143 425.19C264.157 428.539 296.788 420.852 325.567 414.089L328.179 413.476C332.724 412.402 337.268 411.314 341.808 410.215C354.653 407.126 367.937 403.926 381.105 401.389C388.583 399.939 396.156 398.852 403.474 397.801C409.946 396.877 416.635 395.915 423.253 394.708C445.215 390.714 468.769 392.058 491.544 393.352C534.159 395.783 578.222 398.289 614.251 366.22C638.187 344.908 652.97 312.877 654.809 278.332C656.602 244.669 645.711 211.832 624.942 188.244C616.904 179.12 607.829 170.838 599.049 162.826Z" fill="#F5F8ED"/>
<path fill-rule="evenodd" clip-rule="evenodd" d="M577.271 173.397C569.141 164.799 560.738 155.909 553.264 146.421C530.258 117.217 522.106 84.6652 529.033 49.6846C532.686 31.2427 538.971 14.2307 547.11 0H545.753C537.728 14.2179 531.534 31.118 527.917 49.3974C520.899 84.8145 529.138 117.748 552.407 147.281C559.913 156.814 568.339 165.723 576.487 174.338C589.837 188.457 603.642 203.055 613.73 220.742C630.373 249.908 631.229 284.007 616.017 311.963C597.693 345.651 566.818 357.742 544.145 361.953C521.946 366.077 498.877 367.025 476.573 367.936C464.408 368.435 451.836 368.947 439.577 369.976C416.776 371.879 393.881 375.81 371.736 379.602C359.099 381.774 346.039 384.014 333.129 385.853L332.984 385.872C310.957 389.017 288.179 392.273 266.824 386.615C256.187 383.802 248.487 378.816 243.928 371.81C235.511 358.865 239.613 341.485 244.545 324.796C249.36 308.494 254.002 291.824 258.489 275.704C264.615 253.7 270.949 230.942 277.815 208.807C281.196 197.908 284.925 186.866 288.528 176.186C297.246 150.369 306.264 123.675 311.301 96.2931C316.995 65.3494 317.845 32.9778 313.853 0H312.697C316.695 32.8899 315.86 65.1751 310.179 96.0309C305.158 123.307 296.162 149.952 287.461 175.723C283.847 186.41 280.117 197.465 276.736 208.377C269.865 230.537 263.526 253.301 257.393 275.317C252.907 291.432 248.27 308.095 243.455 324.384C239.747 336.961 233.53 358.004 243.005 372.577C247.731 379.839 255.653 384.986 266.562 387.874C275.146 390.151 283.942 391 292.815 391C306.225 391 319.814 389.061 333.129 387.158L333.274 387.139C346.195 385.292 359.266 383.053 371.909 380.887C394.031 377.088 416.903 373.17 439.661 371.261C451.898 370.238 464.463 369.727 476.61 369.227C498.955 368.316 522.06 367.368 544.332 363.232C567.242 358.977 598.436 346.743 616.996 312.643C632.44 284.251 631.584 249.633 614.7 220.043C604.53 202.219 590.67 187.565 577.271 173.397Z" fill="#F5F8ED"/>
<path fill-rule="evenodd" clip-rule="evenodd" d="M835.122 0C813.344 17.6506 781.642 9.90286 759.637 2.49791C757.272 1.7039 754.921 0.860582 752.574 0H749C752.424 1.29457 755.853 2.5349 759.296 3.6899C781.697 11.227 814.039 19.1079 836.245 0.649505C836.509 0.438922 836.745 0.216995 837 0H835.122Z" fill="#F5F8ED"/>
<path fill-rule="evenodd" clip-rule="evenodd" d="M530.431 144.373C511.981 117.542 505.547 85.2225 511.817 50.922C514.085 38.5408 518.402 19.6914 526.119 -0.00273132H524.867C517.24 19.6095 512.956 38.3283 510.697 50.6598C504.35 85.348 510.866 118.023 529.525 145.173C536.205 154.885 544.214 164.347 552.693 174.372C578.615 204.998 605.416 236.667 597.857 279.723C590.299 322.743 546.728 335.593 509.609 341.98C496.869 344.174 483.828 345.73 471.215 347.242C464.149 348.092 456.85 348.967 449.68 349.943C441.821 351.011 433.945 352.136 426.069 353.267C399.506 357.074 372.042 361.011 344.968 362.605C307.094 364.842 284.828 354.18 278.786 330.936C274.779 315.524 276.385 298.329 278.375 282.049C278.635 279.929 278.68 276.961 278.73 273.523C278.858 265.211 279.036 253.823 282.821 250.423L282.971 250.217C284.961 245.954 285.456 241.011 285.929 236.23C286.112 234.367 286.289 232.611 286.546 230.886C287.662 223.423 289.836 215.967 291.937 208.755L292.654 206.279C296.711 192.254 301.525 178.279 306.183 164.754C308.217 158.836 310.329 152.711 312.347 146.666C324.625 109.854 331.028 72.6606 331.373 36.1103C331.489 24.1228 330.884 11.9346 330.184 -0.00273132H329.038C329.738 11.9346 330.344 24.1289 330.228 36.097C329.883 72.4916 323.502 109.542 311.274 146.204C309.256 152.247 307.15 158.367 305.115 164.286C300.452 177.823 295.633 191.816 291.57 205.873L290.847 208.348C288.735 215.604 286.546 223.111 285.417 230.667C285.156 232.429 284.967 234.285 284.789 236.085C284.333 240.705 283.855 245.472 282.009 249.498C277.896 253.36 277.725 264.517 277.586 273.498C277.536 276.898 277.491 279.829 277.241 281.874C275.234 298.292 273.611 315.643 277.685 331.298C283.366 353.154 302.792 364.192 335.486 364.192C338.548 364.192 341.733 364.098 345.024 363.905C372.143 362.305 399.628 358.368 426.213 354.555C434.09 353.423 441.954 352.298 449.813 351.229C456.977 350.255 464.276 349.38 471.334 348.536C483.965 347.023 497.019 345.455 509.782 343.261C544.346 337.311 591.2 324.28 598.982 279.973C606.659 236.261 579.644 204.342 553.521 173.472C545.061 163.479 537.075 154.036 530.431 144.373Z" fill="#F5F8ED"/>
<path fill-rule="evenodd" clip-rule="evenodd" d="M986.015 747.448C980.888 754.135 975.675 760.95 970.684 768H972.164C976.963 761.262 981.958 754.724 986.88 748.298C996.274 736.051 1005.98 723.389 1014.03 709.611C1031.35 679.987 1033.01 650.424 1019.41 613.759C1008.37 584.012 996.966 553.261 1004.73 517.774C1012.98 480.099 1034.76 450.449 1055.82 421.774C1073.23 398.037 1091.24 373.499 1101.67 344.436C1113.44 311.63 1112.13 274.043 1097.79 232.735C1096.86 230.036 1095.9 227.341 1094.96 224.642C1090.16 211.023 1085.21 196.935 1081.79 182.547C1078.92 170.448 1077.55 157.847 1076.23 145.661C1075.77 141.392 1075.29 136.973 1074.76 132.629C1072.48 114.241 1067.68 97.741 1059.17 79.122C1053 65.5975 1044.03 54.0595 1035.35 42.9046C1031.73 38.2474 1027.98 33.4346 1024.5 28.5542C1018.76 20.5045 1012.93 10.8348 1010.83 -0.00273132H1009.64C1011.74 11.1779 1017.72 21.1035 1023.61 29.3657C1027.1 34.2717 1030.86 39.0978 1034.48 43.7596C1043.12 54.8593 1052.05 66.3348 1058.16 79.7221C1066.59 98.2043 1071.35 114.579 1073.61 132.811C1074.16 137.142 1074.64 141.555 1075.09 145.817C1076.43 158.048 1077.79 170.697 1080.68 182.886C1084.12 197.348 1089.08 211.467 1093.89 225.123C1094.84 227.817 1095.79 230.511 1096.72 233.211C1110.95 274.198 1112.27 311.455 1100.61 343.948C1090.25 372.824 1072.3 397.286 1054.93 420.936C1033.79 449.736 1011.94 479.498 1003.62 517.462C995.75 553.364 1007.25 584.324 1018.35 614.261C1031.79 650.475 1030.16 679.659 1013.08 708.9C1005.07 722.601 995.386 735.227 986.015 747.448Z" fill="#F5F8ED"/>
<path fill-rule="evenodd" clip-rule="evenodd" d="M1366 20.0535C1347.18 18.7371 1329.97 20.0971 1312.72 24.113C1298.21 27.4899 1283.66 31.8624 1269.59 36.0912C1250.78 41.7483 1231.33 47.5932 1211.72 51.1204C1185.76 55.7932 1152.19 58.8314 1122.82 40.7136C1105.27 29.8824 1091.62 15.6056 1083.33 0H1082C1090.37 16.0685 1104.3 30.7652 1122.28 41.8545C1139.73 52.6241 1158.6 56 1176.52 56C1189.06 56 1201.13 54.3408 1211.9 52.4045C1231.56 48.8649 1251.05 43.0128 1269.89 37.3496C1283.94 33.1213 1298.46 28.7549 1312.96 25.3842C1330.12 21.3945 1347.25 20.0345 1366 21.3571V20.0535Z" fill="#F5F8ED"/>
<path fill-rule="evenodd" clip-rule="evenodd" d="M531.153 173.443C518.328 155.923 505.067 137.804 497.858 116.399C487.294 85.0409 494.344 50.546 503.538 17.9433C505.185 12.1023 506.883 6.09848 508.627 0H503.819C502.235 5.5544 500.691 11.0274 499.188 16.3633C489.741 49.8652 482.523 85.3966 493.591 118.255C501.072 140.461 514.578 158.91 527.639 176.755C530.35 180.459 533.155 184.295 535.834 188.07C557.008 217.873 566.491 243.14 564.04 263.164C562.492 275.766 556.131 286.631 545.131 295.459C517.389 317.721 479.622 323.306 446.298 328.23L443.411 328.661C438.484 329.392 433.447 330.198 428.58 330.979C410.703 333.846 392.221 336.815 374.094 336.815C365.909 336.815 358.427 336.228 351.217 335.021C333.373 332.041 320.621 324.982 313.312 314.035C305.858 302.876 303.974 288.231 302.578 272.935C303.608 239.303 309.383 207.258 320.228 174.973C321.303 171.787 322.378 168.613 323.453 165.446C332.674 138.255 342.212 110.139 345.648 80.0173C348.197 57.6998 348.435 34.9632 348.668 12.9775C348.718 8.69756 348.768 4.35415 348.829 0H344.262C344.196 4.33675 344.146 8.65406 344.102 12.9145C343.87 34.7508 343.631 57.338 341.115 79.3555C337.751 108.858 328.735 135.437 319.186 163.584C318.111 166.757 317.03 169.932 315.961 173.125C304.911 206.013 299.036 238.66 298.005 272.935L298 273.111L298.016 273.285C299.479 289.411 301.474 304.893 309.671 317.164C317.723 329.236 331.484 336.965 350.552 340.151C357.984 341.395 365.687 342 374.094 342C392.543 342 411.19 339.008 429.218 336.115C434.072 335.333 439.099 334.528 444.003 333.802L446.885 333.378C480.734 328.373 519.1 322.7 547.769 299.696C559.84 290.006 566.836 277.953 568.561 263.877C571.235 242.077 561.702 216.211 539.393 184.815C536.687 181.009 533.873 177.16 531.153 173.443Z" fill="#F5F8ED"/>
<path fill-rule="evenodd" clip-rule="evenodd" d="M505.812 173.974C491.008 152.852 475.702 131.018 471.021 104.314C466.304 77.3483 473.701 50.5501 480.848 24.6342C483.086 16.5337 485.36 8.19416 487.234 0H486.049C484.198 8.06409 481.956 16.271 479.754 24.2466C472.557 50.3202 465.118 77.2792 469.9 104.571C474.626 131.574 490.023 153.54 504.914 174.78C508.497 179.893 512.202 185.175 515.639 190.376C537.905 224.087 541.784 251.467 527.157 271.756C512.813 291.659 487.015 298.753 468.168 303.936C447.004 309.756 421.999 315.699 397.011 315.699H397.006C387.837 315.699 379.007 314.881 370.778 313.269C340.732 307.374 324.035 284.827 321.141 246.309C321.081 214.898 331.914 185.526 342.385 157.115C343.514 154.066 344.638 151.021 345.745 147.977C357.935 114.485 363.817 83.9361 364.245 51.838L364.312 46.5687C364.501 31.5922 364.701 15.6581 365.981 0H364.823C363.555 15.6581 363.355 31.5794 363.166 46.5559L363.1 51.82C362.671 83.7492 356.817 114.147 344.683 147.483C343.576 150.521 342.452 153.565 341.327 156.616C330.812 185.144 319.934 214.642 320 246.365C322.939 285.602 339.959 308.543 370.577 314.55C378.878 316.176 387.77 317 397.006 317H397.011C422.122 317 447.209 311.03 468.441 305.192C487.443 299.973 513.46 292.815 528.046 272.575C543.051 251.766 539.181 223.849 516.56 189.601C513.109 184.381 509.404 179.093 505.812 173.974Z" fill="#F5F8ED"/>
<path fill-rule="evenodd" clip-rule="evenodd" d="M0 96C2.46148 95.2139 4.9175 94.4386 7.34074 93.6777C33.1756 85.5291 59.8891 77.104 83.1345 60.814C105.129 45.3932 121.856 24.2931 138 0H136.561C120.651 23.8521 104.135 44.556 82.535 59.6999C59.4279 75.8954 32.7918 84.2947 7.03527 92.4181C4.71856 93.148 2.36133 93.8918 0 94.6413V96Z" fill="#F5F8ED"/>
<path fill-rule="evenodd" clip-rule="evenodd" d="M269.591 31.067C267.339 20.4252 263.77 9.94073 259.167 0H257.884C262.57 10.0217 266.199 20.6138 268.479 31.373C275.289 63.5101 271.886 97.7868 257.451 142.51C244.648 182.161 230.073 217.389 214.124 247.217C201.021 271.721 184.835 291.559 167.696 312.56C163.265 317.996 158.68 323.615 154.193 329.276C149.535 335.144 144.898 341.206 140.413 347.069C134.136 355.276 127.644 363.752 121.018 371.842C119.733 373.399 118.427 375.039 117.088 376.715C108.621 387.3 99.0261 399.292 87.6524 403.834C84.5403 405.073 81.3603 405.711 78.1922 405.711H78.1863C55.5718 405.698 37.0717 373.806 30.168 360.094C17.7214 335.37 8.5385 308.481 0 281.987V285.759C8.2548 311.221 17.2045 336.958 29.173 360.738C37.8731 378.016 55.8108 407 78.1863 407H78.1922C81.4878 407 84.8008 406.349 88.0308 405.06C99.6828 400.407 109.377 388.283 117.932 377.585C119.273 375.914 120.578 374.281 121.857 372.724C128.5 364.622 134.993 356.133 141.28 347.926C145.76 342.063 150.396 336.008 155.044 330.14C159.524 324.49 164.11 318.873 168.54 313.443C185.718 292.391 201.944 272.509 215.102 247.892C231.089 217.989 245.698 182.687 258.529 142.954C273.043 97.9815 276.456 63.4732 269.591 31.067Z" fill="#F5F8ED"/>
<path fill-rule="evenodd" clip-rule="evenodd" d="M466.502 162.728C460.444 155.249 454.184 147.514 448.869 139.559C438.688 124.333 433.574 111.153 432.767 98.0853C431.884 83.7355 437.026 70.2434 442.002 57.1876C443.22 54.0028 444.476 50.7048 445.604 47.4816C449.463 36.4985 455.963 17.9427 457.853 0H456.7C454.811 17.7166 448.357 36.1232 444.543 46.9996C443.415 50.2039 442.163 53.4953 440.952 56.6749C435.92 69.8676 430.721 83.5099 431.622 98.1802C432.445 111.51 437.633 124.909 447.951 140.342C453.299 148.346 459.583 156.1 465.659 163.603C478.102 178.974 490.973 194.87 497.281 214.364C506.7 243.471 488.532 264.475 468.387 274.431C451.326 282.86 430.993 287.699 412.608 287.699C393.138 287.699 359.074 281.866 349.684 242.896C347.454 221.055 352.025 197.598 363.261 173.178C366.718 165.662 370.855 158.158 374.847 150.905C382.203 137.55 389.809 123.738 393.922 108.744C398.987 90.2875 396.925 70.6802 394.929 51.724C393.411 37.2613 391.837 22.304 393.439 7.96033C393.722 5.42002 394.173 2.7418 394.762 0H393.589C393.016 2.68489 392.576 5.30108 392.299 7.79781C390.681 22.304 392.265 37.3372 393.795 51.8814C395.774 70.6992 397.82 90.1696 392.827 108.356C388.757 123.194 381.19 136.931 373.873 150.217C369.871 157.489 365.723 165.018 362.244 172.577C350.896 197.235 346.287 220.942 348.566 243.14C358.167 283.042 392.816 289 412.608 289H412.614C431.149 289 451.643 284.125 468.843 275.62C489.465 265.432 508.052 243.866 498.356 213.92C491.966 194.181 479.022 178.191 466.502 162.728Z" fill="#F5F8ED"/>
<path fill-rule="evenodd" clip-rule="evenodd" d="M0 137C0.779517 135.929 1.61423 134.877 2.52784 133.855C13.4073 121.712 27.6001 114.359 41.3249 107.248C43.2233 106.257 45.1276 105.274 47.0151 104.278C70.7632 91.7605 101.542 73.8585 129.009 46.3348C133.736 41.5958 138.375 36.3033 143.279 30.6987C153.241 19.3344 163.419 7.72212 175 0H172.789C161.765 7.7716 152.016 18.8921 142.467 29.7958C137.573 35.3816 132.945 40.6562 128.246 45.3696C100.886 72.7873 70.2008 90.627 46.5256 103.107C44.6432 104.103 42.7444 105.086 40.84 106.071C27.0263 113.232 12.745 120.636 1.7205 132.939C1.11386 133.613 0.545981 134.305 0 135.007V137Z" fill="#F5F8ED"/>
<path fill-rule="evenodd" clip-rule="evenodd" d="M251.884 37.481C247.666 23.3838 239.503 9.21751 228.378 0H226.389C237.986 8.99257 246.482 23.4768 250.8 37.8925C258.519 63.6612 257.402 93.6464 247.394 129.568C238.075 162.992 223.432 198.452 205.039 232.107C188.841 261.751 168.314 284.803 142.479 310.296C141.329 311.432 140.14 312.618 138.907 313.842C122.43 330.242 99.8631 352.708 77.8749 352.708H77.869C74.3902 352.708 71.001 352.121 67.7995 350.972C45.9055 343.097 33.2913 318.266 22.9168 292.599C13.0421 268.165 6.09088 242.311 0 216.561V221.53C5.84005 245.793 12.5582 270.081 21.878 293.14C32.3581 319.07 45.1326 344.177 67.4549 352.208C70.7675 353.394 74.2682 354 77.869 354C77.8749 354 77.8749 354 77.8749 354C100.297 354 123.052 331.352 139.662 314.814C140.896 313.591 142.085 312.406 143.229 311.276C169.147 285.702 189.741 262.568 206.012 232.788C224.455 199.044 239.142 163.486 248.483 129.955C258.574 93.7651 259.686 63.5103 251.884 37.481Z" fill="#F5F8ED"/>
<path fill-rule="evenodd" clip-rule="evenodd" d="M199.114 34.8032C185.935 34.8032 170.266 42.753 152.541 58.4285C126.134 81.7844 98.0196 102.023 71.5734 120.416C69.9833 121.522 68.3715 122.629 66.755 123.735C56.327 130.866 45.5502 138.248 37.468 148.542C26.1293 162.992 23.3003 181.73 22.9278 194.905C22.8281 198.547 22.8554 202.53 23.0225 207.079C27.7694 240.961 35.1676 275.523 56.9166 298.285C64.737 306.461 73.9142 310.611 84.1911 310.611H84.1966C103.134 310.611 122.587 296.811 135.578 286.429C179.115 251.643 212.415 195.467 229.34 128.267C235.276 104.691 241.312 70.8532 225.26 49.2478C218.134 39.6656 209.34 34.8032 199.114 34.8032ZM84.1966 311.905H84.1911C73.6133 311.905 64.1756 307.643 56.1435 299.235C34.1327 276.204 26.6689 241.392 21.8833 207.204C21.7103 202.548 21.683 198.535 21.7831 194.86C22.1665 181.472 25.0456 162.417 36.612 147.679C44.8048 137.242 55.6654 129.81 66.1654 122.623C67.7773 121.517 69.3837 120.416 70.9737 119.311C97.3921 100.935 125.473 80.722 151.841 57.4044C169.766 41.5472 185.674 33.5037 199.114 33.5037C209.691 33.5037 218.784 38.5228 226.138 48.4096C242.54 70.4912 236.449 104.761 230.441 128.622C213.449 196.104 179.993 252.529 136.239 287.491C123.127 297.973 103.456 311.905 84.1966 311.905Z" fill="#F5F8ED"/>
<path fill-rule="evenodd" clip-rule="evenodd" d="M441.142 432.399C435.513 432.399 429.971 432.612 424.679 433.061C388.601 436.049 354.1 446.849 325.109 457.024C315.899 460.261 306.332 463.262 297.083 466.173C274.817 473.161 251.795 480.399 230.907 491.587C213.488 500.924 193.26 519.162 195.834 553.036C203.833 610.027 226.421 686.136 288.613 724.874C321.418 745.303 352.711 756.762 381.625 758.953C383.742 759.112 385.894 759.199 388.017 759.199C413.145 759.199 438.403 748.273 467.504 724.813C473.67 719.836 479.862 714.711 485.85 709.775C506.363 692.813 527.572 675.276 550.616 661.335C562.906 653.911 575.892 647.224 588.446 640.762C606.267 631.587 624.695 622.11 641.451 610.314C648.973 605.025 656.404 599.111 663.585 593.402C682.012 578.739 701.063 563.573 723.707 557.224C735.313 553.963 747.83 552.437 763.07 552.437C774.8 552.437 786.739 553.348 798.29 554.239C806.719 554.874 815.429 555.55 823.889 555.837C827.491 555.965 830.838 556.026 834.116 556.026C855.949 556.026 887.946 553.548 913.59 532.177C930.374 518.184 943.351 499.149 955.9 480.723C960.744 473.612 965.757 466.262 970.907 459.324C976.276 452.099 981.89 444.874 987.327 437.887C1002.62 418.236 1018.44 397.911 1030.49 375.036C1046.42 344.773 1048.55 310.004 1036.79 271.71C1026.2 237.173 1011.91 201.004 994.339 164.198C979.645 133.441 960.394 112.41 937.09 101.691C917.369 92.6158 895.472 88.3918 868.18 88.3918C850.403 88.3918 832.126 90.1726 814.441 91.898C796.833 93.6101 778.625 95.3847 760.994 95.3847C754.647 95.3847 748.8 95.1666 743.095 94.7166C726.334 93.3787 712.283 89.8602 700.162 83.9543C690.968 79.4728 682.699 72.9667 674.699 66.6727C669.536 62.6166 664.195 58.4167 658.667 54.8096C647.917 47.7916 638.505 44.3853 629.899 44.3853C626.261 44.3853 622.718 45.0033 619.367 46.2351C605.662 51.2604 598.618 65.1792 601.851 80.8782C605.83 100.235 623.447 111.735 639.001 121.873C642.252 123.998 645.321 126.003 648.172 128.017C668.338 142.261 682.053 167.991 690.108 206.673C696.951 239.504 703.622 282.429 694.461 323.311C686.597 358.373 670.187 391.418 649.433 413.961C630.063 435.012 603.094 445.249 566.981 445.249C545.849 445.249 524.239 441.861 506.868 439.149C485.608 435.823 463.62 432.399 441.142 432.399ZM388.022 760.489C388.022 760.489 388.022 760.489 388.017 760.489C385.866 760.489 383.692 760.412 381.548 760.248C352.466 758.052 321.012 746.527 288.063 726.011C225.465 687.022 202.738 610.513 194.695 553.19C192.061 518.527 212.67 499.924 230.418 490.412C251.39 479.174 274.461 471.924 296.778 464.925C306.016 462.011 315.577 459.012 324.77 455.786C353.822 445.599 388.4 434.761 424.596 431.761C429.915 431.325 435.484 431.099 441.142 431.099C463.698 431.099 485.727 434.536 507.032 437.861C524.357 440.573 545.927 443.949 566.981 443.949C602.784 443.949 629.489 433.837 648.636 413.024C669.244 390.642 685.541 357.83 693.35 322.993C702.452 282.386 695.809 239.66 688.997 206.973C681.01 168.641 667.46 143.172 647.566 129.116C644.729 127.117 641.669 125.117 638.427 122.998C622.677 112.722 604.824 101.079 600.73 81.1726C597.366 64.7783 604.71 50.241 619.017 44.9971C622.482 43.7284 626.143 43.0848 629.899 43.0848C638.71 43.0848 648.308 46.5536 659.236 53.6843C664.814 57.3159 670.173 61.5348 675.35 65.6103C683.305 71.866 691.524 78.3284 700.608 82.7598C712.615 88.6105 726.53 92.0972 743.172 93.4223C748.841 93.8728 754.679 94.0914 760.994 94.0914C778.579 94.0914 796.765 92.3163 814.355 90.6037C832.049 88.8782 850.358 87.0913 868.18 87.0913C895.627 87.0913 917.661 91.3471 937.522 100.491C961.068 111.323 980.524 132.555 995.354 163.579C1012.96 200.449 1027.27 236.685 1037.88 271.285C1049.74 309.961 1047.59 345.092 1031.47 375.699C1019.37 398.674 1003.52 419.049 988.192 438.749C982.76 445.725 977.141 452.949 971.786 460.161C966.65 467.073 961.646 474.424 956.81 481.524C944.207 500.012 931.189 519.126 914.268 533.211C888.346 554.823 856.104 557.311 834.116 557.311C830.829 557.311 827.468 557.26 823.857 557.137C815.375 556.835 806.65 556.175 798.213 555.524C786.684 554.649 774.754 553.737 763.07 553.737C747.921 553.737 735.505 555.248 723.975 558.473C701.541 564.776 682.581 579.86 664.24 594.462C657.046 600.186 649.606 606.11 642.056 611.425C625.232 623.252 606.773 632.75 588.919 641.95C576.379 648.402 563.42 655.073 551.158 662.487C528.178 676.388 507.005 693.888 486.524 710.809C480.536 715.776 474.334 720.886 468.165 725.862C438.864 749.486 413.396 760.489 388.022 760.489Z" fill="#F5F8ED"/>
<path fill-rule="evenodd" clip-rule="evenodd" d="M1366 210.54C1361.93 209.833 1357.9 208.982 1353.93 208.144C1348 206.886 1341.87 205.585 1335.67 204.778C1301.97 200.392 1274.48 202.331 1249.17 210.877L1245.52 212.116C1223.46 219.656 1198.45 228.202 1180.15 210.076C1164.7 194.773 1162.67 166.31 1168.66 146.113C1179.23 110.488 1215.99 96.5655 1245.52 85.3856C1249.13 84.0156 1252.66 82.6829 1256.03 81.3492C1261.57 79.1658 1267.15 76.8582 1272.56 74.6235C1291.71 66.703 1311.52 58.5124 1331.99 54.7707C1342.95 52.7692 1354.31 51.9429 1366 52.2556V47.0634C1354.07 46.7502 1342.46 47.5949 1331.26 49.6467C1310.37 53.4637 1290.35 61.7414 1270.99 69.744C1265.61 71.9705 1260.03 74.2734 1254.53 76.4441C1251.17 77.7716 1247.67 79.0981 1244.08 80.4548C1213.57 92.0053 1175.62 106.377 1164.32 144.456C1157.85 166.292 1160.17 197.188 1177.14 213.993C1186.16 222.922 1196.62 226 1207.4 226C1220.76 226 1234.64 221.264 1246.84 217.09L1250.47 215.858C1275.17 207.512 1302.08 205.635 1335.15 209.932C1341.19 210.721 1347.25 212.003 1353.08 213.249C1357.32 214.143 1361.63 215.057 1366 215.802V210.54Z" fill="#F5F8ED"/>
<path fill-rule="evenodd" clip-rule="evenodd" d="M50.6968 219.917C52.8983 235.173 59.3117 261.88 77.5988 270.742C82.6407 273.186 88.0592 274.424 93.7121 274.424C109.03 274.424 126.495 265.523 145.621 247.961C176.597 219.529 200.654 170.491 206.917 123.029C208.88 108.167 208.962 88.9602 198.219 81.8101C194.872 79.5854 191.01 78.4539 186.73 78.4539C172.111 78.4539 154.797 91.4536 143.342 100.054C142.053 101.023 140.824 101.942 139.668 102.799C133.031 107.698 126.173 112.453 119.536 117.047C106.096 126.354 92.2059 135.978 79.6833 147.198C70.695 155.248 63.2248 164.879 56.1663 177.491C49.8403 188.805 50.2296 202.96 50.608 216.648C50.6353 217.741 50.6695 218.836 50.6968 219.917ZM93.7121 279.617H93.7062C87.4376 279.611 81.4068 278.236 75.7925 275.511C55.4263 265.642 48.4734 236.854 46.1444 220.573L46.1171 220.23C46.0888 219.098 46.0615 217.961 46.0283 216.811C45.6449 203.011 45.2169 187.373 52.2927 174.717C59.635 161.591 67.4326 151.553 76.8375 143.129C89.5763 131.716 103.589 122.01 117.14 112.622C123.749 108.041 130.586 103.311 137.161 98.4537C138.312 97.6043 139.529 96.6914 140.807 95.7288C152.724 86.7852 170.727 73.2663 186.73 73.2663C191.837 73.2663 196.484 74.6354 200.542 77.3352C210.936 84.2539 214.604 99.8848 211.453 123.792C205.027 172.467 180.321 222.792 148.506 251.992C128.546 270.323 110.11 279.617 93.7121 279.617Z" fill="#F5F8ED"/>
<path fill-rule="evenodd" clip-rule="evenodd" d="M1366 169.691C1356.68 168.967 1346.66 167.445 1335.27 165.022L1334.31 164.819C1319.33 161.649 1298.82 157.304 1288.78 143.294C1285.59 138.851 1284.49 134.131 1285.52 129.265C1288.92 113.07 1314.49 98.714 1325.33 93.2883C1337.31 87.2903 1352.5 86.7298 1366 86.3019V85C1352.39 85.428 1337.07 85.9874 1324.88 92.0932C1313.88 97.5936 1287.92 112.195 1284.41 128.963C1283.29 134.244 1284.47 139.342 1287.89 144.119C1298.2 158.5 1318.95 162.893 1334.1 166.104L1335.06 166.312C1346.53 168.741 1356.61 170.277 1366 171V169.691Z" fill="#F5F8ED"/>
<path fill-rule="evenodd" clip-rule="evenodd" d="M239.061 567.925C250.311 630.461 288.546 688.476 336.503 715.725C354.528 725.96 373.955 731.387 392.675 731.387C404.303 731.387 415.713 729.339 426.58 725.289C450.742 716.313 472.345 699.049 493.244 682.363C499.264 677.55 505.493 672.573 511.631 667.924C530.987 653.26 551.441 639.764 571.225 626.713C582.071 619.55 593.29 612.152 604.168 604.661C617.163 595.711 629.193 584.437 639.93 571.161C645.827 563.875 650.945 555.56 655.899 547.522C660.434 540.159 665.128 532.551 670.469 525.598C679.681 513.622 692.389 507.8 709.314 507.8C720.497 507.8 731.989 510.212 743.095 512.537C747.252 513.412 751.177 514.221 755.011 514.912C778.379 519.06 802.539 523.36 826.435 523.36C838.141 523.36 848.769 522.347 858.918 520.273C875.36 516.909 890.145 510.699 902.871 501.798C911.901 495.487 919.728 487.073 927.286 478.949C931.079 474.874 935 470.674 939.048 466.737C946.174 459.812 952.475 451.448 958.577 443.349C961.969 438.861 965.471 434.212 969.081 429.848C970.443 428.224 971.795 426.586 973.152 424.949C983.247 412.824 993.688 400.274 1002.56 386.73C1016.16 365.974 1030.89 333.173 1023.81 294.793C1018.53 266.173 1005.36 239.442 992.618 213.592C990.204 208.698 987.704 203.629 985.337 198.686C972.806 172.605 956.523 143.961 930.601 129.292C910.89 118.122 887.977 113.147 856.318 113.147C850.936 113.147 845.08 113.285 838.396 113.572L834.831 113.723C803.181 115.072 770.451 116.46 741.028 129.83C710.734 143.586 711.604 177.36 715.083 210.78C715.761 217.316 716.563 224.111 717.328 230.68C720.852 260.842 724.499 292.024 720.597 321.655C716.717 351.136 705.89 379.448 695.403 406.824C693.586 411.587 691.77 416.337 690.008 421.048C689.215 423.173 688.428 425.324 687.631 427.498C683.278 439.437 678.774 451.773 671.803 462.024C662.132 476.249 647.771 479.374 634.999 480.549C630.946 480.925 626.689 481.112 622.34 481.112C602.784 481.112 582.977 477.337 563.83 473.686C558.261 472.624 552.501 471.524 546.905 470.561C537.63 468.949 528.173 467.099 519.034 465.324C495.767 460.773 471.721 456.086 447.991 454.724C444.445 454.512 440.826 454.412 437.241 454.412C410.762 454.412 383.526 459.836 353.978 470.973C321.94 483.062 295.138 496.061 272.038 510.711C247.927 525.997 236.833 545.248 239.061 567.925ZM392.68 736.573H392.675C373.244 736.573 353.105 730.962 334.447 720.363C309.75 706.324 287.323 684.513 269.592 657.259C252.267 630.65 240.151 600.074 234.554 568.836L234.52 568.611C232.012 543.625 243.886 522.623 269.799 506.186C293.154 491.375 320.218 478.249 352.532 466.061C382.553 454.737 410.261 449.224 437.241 449.224C440.904 449.224 444.6 449.336 448.224 449.536C472.226 450.924 496.413 455.637 519.813 460.198C528.933 461.987 538.363 463.823 547.602 465.423C553.23 466.399 559.004 467.511 564.591 468.574C583.555 472.186 603.166 475.923 622.34 475.923C626.566 475.923 630.696 475.737 634.625 475.375C646.4 474.299 659.591 471.474 668.17 458.861C674.772 449.148 679.157 437.137 683.396 425.523C684.197 423.336 684.99 421.161 685.791 419.023C687.558 414.299 689.375 409.549 691.205 404.762C701.564 377.692 712.282 349.698 716.062 320.892C719.864 291.979 716.262 261.167 712.779 231.361C712.014 224.773 711.212 217.961 710.534 211.385C707.001 177.523 706.022 140.135 739.316 125.01C769.486 111.311 802.611 109.904 834.653 108.542L838.219 108.386C844.958 108.097 850.881 107.961 856.318 107.961C888.724 107.961 912.265 113.104 932.655 124.648C959.701 139.967 976.499 169.416 989.362 196.204C991.73 201.13 994.216 206.179 996.62 211.066C1009.52 237.254 1022.87 264.336 1028.3 293.73C1034.18 325.605 1026.54 358.836 1006.24 389.824C997.207 403.611 986.671 416.261 976.485 428.511C975.142 430.136 973.785 431.774 972.428 433.399C968.895 437.674 965.425 442.273 962.069 446.724C955.854 454.961 949.42 463.487 942.039 470.674C938.069 474.525 934.189 478.687 930.442 482.712C922.706 491.023 914.701 499.611 905.285 506.212C892.066 515.45 876.74 521.911 859.742 525.388C849.301 527.513 838.41 528.552 826.435 528.552C802.179 528.552 777.846 524.226 754.301 520.038C750.398 519.336 746.451 518.512 742.262 517.636C731.356 515.363 720.073 512.997 709.314 512.997C693.577 512.997 682.331 518.087 673.93 529.013C668.743 535.751 664.122 543.252 659.655 550.502C654.619 558.673 649.41 567.126 643.309 574.673C632.28 588.313 619.914 599.889 606.55 609.09C595.631 616.611 584.398 624.025 573.533 631.198C553.808 644.213 533.414 657.674 514.176 672.235C508.088 676.848 501.882 681.815 495.885 686.597C474.712 703.513 452.821 720.998 428.009 730.225C416.681 734.438 404.792 736.573 392.68 736.573Z" fill="#F5F8ED"/>
<path fill-rule="evenodd" clip-rule="evenodd" d="M841.433 135.967C832.527 135.967 823.111 136.486 812.661 137.548C784.548 140.41 765.074 149.96 753.121 166.754C738.45 187.38 738.906 215.473 740.937 237.641C741.483 243.48 742.084 249.355 742.671 255.042C745.176 279.167 747.53 301.948 745.385 326.155C744.32 338.249 742.253 350.424 740.249 362.199C736.593 383.686 732.823 405.911 735.035 428.261C746.788 484.536 810.73 488.925 830.05 488.925C832.317 488.925 834.594 488.875 836.83 488.774C897.926 486.011 944.739 434.049 974.641 395.205C1000.01 362.242 1009.28 331.78 1003.83 299.336C998.387 266.842 980.856 234.099 964.428 206.354C946.829 176.635 923.193 155.391 896.091 144.93C880.464 138.898 862.588 135.967 841.433 135.967ZM830.05 490.224C808.239 490.224 787.417 485.586 771.444 477.174C751.045 466.436 738.419 450.061 733.915 428.486C731.657 405.861 735.459 383.543 739.129 361.954C741.119 350.205 743.186 338.06 744.251 326.024C746.373 301.961 744.028 279.242 741.538 255.192C740.95 249.504 740.34 243.623 739.803 237.78C737.749 215.361 737.294 186.935 752.233 165.942C764.382 148.861 784.116 139.148 812.551 136.254C823.047 135.185 832.481 134.667 841.433 134.667C862.72 134.667 880.719 137.623 896.46 143.698C923.808 154.255 947.64 175.673 965.384 205.635C981.867 233.485 999.466 266.373 1004.97 299.092C1010.48 331.961 1001.12 362.774 975.497 396.055C945.463 435.086 898.414 487.286 836.875 490.074C834.617 490.173 832.331 490.224 830.05 490.224Z" fill="#F5F8ED"/>
<path fill-rule="evenodd" clip-rule="evenodd" d="M155.759 137.023C144.548 137.023 129.219 145.854 123.443 149.179C109.709 157.091 78.2044 179.273 82.3516 214.273C86.5202 231.385 97.2419 234.992 105.502 234.992C113.388 234.998 122.743 231.617 131.174 225.717C142.064 218.099 151.413 206.985 158.21 193.572C161.713 186.66 172.751 162.78 167.821 145.623C166.181 139.917 162.124 137.023 155.759 137.023ZM105.502 236.291C96.8412 236.291 85.6081 232.517 81.2337 214.53C76.9705 178.623 108.97 156.061 122.926 148.023C128.762 144.661 144.27 135.729 155.759 135.729C162.679 135.729 167.104 138.922 168.916 145.223C173.991 162.886 162.762 187.191 159.205 194.216C152.314 207.816 142.831 219.092 131.776 226.823C123.171 232.841 113.594 236.291 105.502 236.291Z" fill="#F5F8ED"/>
<path fill-rule="evenodd" clip-rule="evenodd" d="M836.142 163.31C817.301 163.31 801.491 167.866 789.138 176.861C772.901 188.698 765.429 209.598 766.932 238.979C767.287 242.717 767.642 246.473 768.006 250.229C771.43 286.086 774.977 323.173 772.632 360.274C770.287 397.336 777.591 422.262 794.966 436.474C808.595 447.637 824.058 453.286 840.932 453.286C891.092 453.286 936.566 405.173 949.32 390.418C974.787 360.948 984.881 333.98 981.089 305.561C977.286 277.048 961.778 244.185 938.547 215.398C917.392 189.173 891.033 172.135 862.333 166.116C853.427 164.254 844.611 163.31 836.142 163.31ZM840.946 454.586C840.932 454.586 840.946 454.586 840.932 454.586C823.812 454.586 808.126 448.849 794.297 437.536C776.566 423.023 769.108 397.724 771.485 360.18C773.821 323.192 770.442 287.817 766.863 250.367C766.508 246.611 766.153 242.854 765.793 239.085C764.263 209.173 771.908 187.872 788.528 175.766C801.059 166.641 817.077 162.01 836.142 162.01C844.689 162.01 853.572 162.966 862.533 164.841C891.488 170.91 918.07 188.091 939.389 214.523C962.78 243.491 978.388 276.605 982.222 305.366C986.07 334.223 975.875 361.536 950.139 391.33C937.313 406.161 891.534 454.586 840.946 454.586Z" fill="#F5F8ED"/>
<path fill-rule="evenodd" clip-rule="evenodd" d="M418.276 180.824C409.283 180.824 400.423 185.791 393.958 194.454C387.145 203.586 384.06 215.599 385.699 226.58C390.029 243.467 406.921 251.061 421.733 251.061C421.739 251.061 421.739 251.061 421.739 251.061C436.918 251.061 449.425 243.649 454.377 231.71C457.105 225.13 457.1 217.979 454.35 210.467C449.358 196.805 437.219 186.548 428.047 182.792C424.858 181.485 421.567 180.824 418.276 180.824ZM421.739 252.36C421.739 252.36 421.739 252.36 421.733 252.36C406.493 252.354 389.096 244.473 384.582 226.867C382.87 215.441 386.055 203.036 393.086 193.617C399.768 184.661 408.944 179.529 418.276 179.529C421.7 179.529 425.118 180.217 428.437 181.573C437.836 185.423 450.286 195.948 455.411 209.967C458.247 217.723 458.247 225.429 455.411 232.261C450.27 244.655 437.369 252.36 421.739 252.36Z" fill="#F5F8ED"/>
<path fill-rule="evenodd" clip-rule="evenodd" d="M808.695 264.885C810.475 278.691 811.609 292.798 812.697 306.442C813.895 321.548 815.142 337.167 817.278 352.317C819.386 367.274 826.425 393.254 849.861 399.236C853.736 400.224 857.83 400.736 862.01 400.736C893.792 400.736 930.765 371.229 942.749 336.305C958.376 290.736 917.715 246.067 891.224 226.854C880.105 218.793 863.021 209.18 844.743 209.18C837.932 209.18 831.439 210.561 825.469 213.273C808.517 220.985 807.907 243.935 808.695 264.885ZM862.023 405.924C862.01 405.924 862.01 405.924 862.01 405.924C857.484 405.924 853.062 405.373 848.86 404.298C822.778 397.649 815.042 369.386 812.752 353.13C810.593 337.804 809.337 322.099 808.126 306.911C807.037 293.292 805.917 279.211 804.146 265.504L804.123 265.242C803.458 247.648 802.334 218.198 823.757 208.46C830.282 205.498 837.34 203.992 844.743 203.992C864.122 203.992 882.063 214.048 893.692 222.485C921.362 242.548 963.727 289.492 947.016 338.186C934.421 374.905 895.49 405.924 862.023 405.924Z" fill="#F5F8ED"/>
<path fill-rule="evenodd" clip-rule="evenodd" d="M471.147 768C474.685 764.16 478.173 760.299 481.62 756.459C490.235 746.885 499.136 736.988 508.553 728.161C534.192 704.164 561.899 686.213 590.904 674.826C607.729 668.226 625.432 663.925 642.548 659.763C658.28 655.938 674.563 651.975 690.158 646.236C693.254 645.099 696.482 643.85 699.829 642.575C725.897 632.535 758.348 620.062 782.959 635.212C789.575 639.298 793.2 644.413 793.732 650.424C795.199 667.003 773.242 687.851 760.124 700.313C757.169 703.14 754.601 705.561 752.725 707.538C735.245 725.872 720.251 746.337 706.987 768H708.389C721.494 746.675 736.292 726.548 753.499 708.485C755.366 706.539 757.916 704.112 760.871 701.312C775.023 687.861 796.401 667.561 794.875 650.286C794.297 643.824 790.472 638.376 783.506 634.076C758.449 618.649 725.742 631.234 699.465 641.336C696.127 642.626 692.899 643.86 689.803 644.997C674.262 650.726 658.016 654.673 642.302 658.498C625.154 662.661 607.424 666.972 590.531 673.602C561.394 685.035 533.573 703.063 507.824 727.163C498.371 736.025 489.442 745.938 480.818 755.538C477.089 759.685 473.324 763.863 469.485 768H471.147Z" fill="#F5F8ED"/>
<path fill-rule="evenodd" clip-rule="evenodd" d="M152.742 744.801C137.934 736.799 129.674 727.726 126.757 716.247C123.271 702.551 126.595 688.036 129.807 674.012C130.164 672.476 130.513 670.95 130.852 669.424C140.452 626.365 138.412 591.359 124.611 562.411C111.277 534.435 88.321 517.124 66.1212 500.387C43.5549 483.375 20.2214 465.786 7.08681 436.998C4.37439 431.062 2.05128 424.886 0 418.586V422.236C1.80084 427.474 3.79611 432.612 6.06959 437.599C19.3366 466.687 42.7991 484.361 65.4815 501.473C87.5706 518.123 110.403 535.336 123.604 563.025C137.261 591.677 139.268 626.375 129.741 669.112C129.402 670.627 129.051 672.148 128.702 673.684C125.6 687.227 122.082 702.561 125.65 716.6C129.618 732.201 142.731 740.823 152.246 745.963C169.916 755.497 188.525 762.399 207.129 768H211.653C191.704 762.189 171.673 755.01 152.742 744.801Z" fill="#F5F8ED"/>
<path fill-rule="evenodd" clip-rule="evenodd" d="M1278.37 761.738C1282.25 764.037 1286.18 766.126 1290.18 768H1293.29C1288.41 765.839 1283.6 763.387 1278.9 760.586C1229.53 731.187 1182.9 665.175 1190.34 605.588C1194.46 572.487 1212.49 540.477 1228.4 512.224C1230.58 508.337 1232.74 504.5 1234.83 500.737C1237.14 496.549 1239.45 492.361 1241.75 488.175C1257.07 460.348 1272.91 431.574 1290.96 405.349C1305.11 384.761 1321.72 366.179 1337.79 348.211C1345.45 339.623 1353.38 330.754 1361.02 321.679C1362.58 319.836 1364.27 317.817 1366 315.667V313.724C1363.98 316.298 1361.95 318.698 1360.13 320.867C1352.56 329.842 1344.64 338.711 1336.97 347.286C1320.89 365.286 1304.26 383.899 1290.05 404.549C1271.96 430.837 1256.11 459.637 1240.78 487.487C1238.47 491.674 1236.17 495.862 1233.86 500.049C1231.77 503.812 1229.61 507.637 1227.43 511.524C1211.46 539.888 1193.36 572.036 1189.2 605.414C1184.62 642.073 1199.88 675.451 1213.47 696.985C1230.23 723.563 1253.89 747.162 1278.37 761.738Z" fill="#F5F8ED"/>
<path fill-rule="evenodd" clip-rule="evenodd" d="M1000.34 768C1002.7 764.549 1005.08 761.19 1007.41 757.939C1009.82 754.611 1012.26 751.288 1014.71 747.94C1029.04 728.473 1043.85 708.336 1051.28 684.114C1061.46 650.885 1049.56 622.74 1036.95 592.952L1035.16 588.712C1021.85 557.122 1019.22 528.726 1027.08 501.898C1035.3 473.874 1052.39 450.024 1067.79 429.874C1071.44 425.098 1075.19 420.298 1078.83 415.661C1091.89 399.036 1105.37 381.848 1115.91 362.43C1117.88 358.804 1119.87 354.999 1121.79 351.311C1133.61 328.679 1145.83 305.273 1167 294.305C1175.1 290.11 1183.92 287.649 1192.47 285.273C1198.4 283.617 1204.52 281.911 1210.38 279.63C1220.51 275.699 1230.4 270.674 1239.97 265.817C1246.12 262.691 1252.48 259.461 1258.83 256.56C1291.89 241.436 1322.58 239.849 1350.07 251.836C1355.27 254.105 1360.99 257.091 1366 260.835V259.305C1361.71 256.173 1356.53 253.26 1350.48 250.623C1322.71 238.511 1291.73 240.105 1258.4 255.355C1252.02 258.266 1245.65 261.505 1239.49 264.629C1229.96 269.479 1220.08 274.485 1210.01 278.405C1204.2 280.666 1198.1 282.367 1192.19 284.011C1183.6 286.405 1174.72 288.879 1166.53 293.123C1145.01 304.261 1132.71 327.842 1120.8 350.648C1118.88 354.33 1116.9 358.136 1114.93 361.748C1104.45 381.074 1091 398.212 1077.98 414.799C1074.34 419.437 1070.57 424.248 1066.92 429.024C1051.46 449.274 1034.27 473.237 1025.99 501.487C1018.03 528.66 1020.69 557.373 1034.13 589.26L1035.92 593.515C1048.41 623.047 1060.23 650.961 1050.19 683.689C1042.83 707.701 1028.09 727.736 1013.84 747.115C1011.38 750.448 1008.92 753.787 1006.52 757.125C1004 760.622 1001.43 764.262 998.887 768H1000.34Z" fill="#F5F8ED"/>
<path fill-rule="evenodd" clip-rule="evenodd" d="M87.5205 575.574C76.1531 548.51 54.5043 531.199 33.5713 514.462C21.9776 505.187 10.1662 495.736 0 484.561V486.337C10.0374 497.211 21.5769 506.449 32.9101 515.511C53.7257 532.162 75.2484 549.375 86.4869 576.127C109.754 631.526 59.2625 682.526 25.8515 716.272L21.7991 720.389C14.2405 728.048 6.7535 736.164 0 745.139V747.161C6.94247 737.777 14.7073 729.313 22.5604 721.351L26.6129 717.25C60.2793 683.238 111.154 631.848 87.5205 575.574Z" fill="#F5F8ED"/>
<path fill-rule="evenodd" clip-rule="evenodd" d="M1035.1 748.452C1030.56 754.852 1025.98 761.339 1021.58 768H1027.32C1031.05 762.475 1034.87 757.048 1038.67 751.688C1043.77 744.473 1049.05 737.024 1053.91 729.513C1071.34 702.561 1093.05 669.035 1083.62 632.96C1079.68 617.922 1072.2 604.6 1064.95 591.713C1055.36 574.612 1046.29 558.473 1044.47 538.372C1039.16 480.025 1082.8 434.286 1117.86 397.523L1120.68 394.561C1142.22 371.955 1162.21 352.411 1188.79 342.106C1200.49 337.573 1213 335.298 1225.1 333.098C1227.53 332.655 1229.96 332.211 1232.39 331.755C1233.27 331.593 1234.26 331.385 1235.35 331.168C1244.05 329.393 1260.26 326.086 1267.68 331.961C1269.73 333.599 1270.95 335.836 1271.41 338.804C1272.78 347.817 1269.39 359.105 1266.38 369.061C1265.66 371.442 1264.98 373.692 1264.39 375.83C1260.49 390.049 1255.78 404.387 1249.99 419.674C1240.36 445.098 1228.31 471.711 1212.06 503.412C1208.12 511.062 1203.62 519.024 1198.84 527.446C1176.25 567.326 1150.65 612.525 1167.72 657.976C1177.64 684.436 1195.22 709.586 1209.41 728.535C1220.69 743.598 1232.45 756.802 1244.51 768H1251.86C1238.45 756.188 1225.4 741.862 1212.9 725.176C1198.92 706.514 1181.62 681.764 1171.93 655.938C1155.81 613.012 1180.72 569.046 1202.71 530.247C1207.5 521.773 1212.03 513.776 1216.01 506.011C1232.37 474.124 1244.49 447.349 1254.2 421.724C1260.05 406.273 1264.82 391.761 1268.77 377.373C1269.34 375.298 1270.01 373.087 1270.72 370.737C1273.9 360.192 1277.5 348.242 1275.92 337.924C1275.26 333.579 1273.37 330.143 1270.3 327.711C1261.31 320.598 1244.55 324.018 1234.54 326.054C1233.47 326.273 1232.49 326.474 1231.64 326.636C1229.22 327.092 1226.8 327.537 1224.37 327.973C1212.08 330.211 1199.38 332.517 1187.31 337.193C1159.88 347.829 1139.49 367.743 1117.57 390.754L1114.74 393.717C1078.94 431.262 1034.37 477.987 1039.91 538.91C1041.84 560.225 1051.62 577.648 1061.1 594.488C1068.16 607.073 1075.47 620.098 1079.22 634.434C1088.01 668.037 1067.06 700.426 1050.2 726.451C1045.4 733.865 1040.16 741.273 1035.1 748.452Z" fill="#F5F8ED"/>
<path fill-rule="evenodd" clip-rule="evenodd" d="M1366 756.848C1359.51 757.55 1352.86 757.822 1346.06 757.647C1318.96 756.986 1293.05 747.779 1271.14 731.02C1250.64 715.332 1233.37 693.731 1221.21 668.549C1213.87 653.353 1210.05 641.082 1208.84 628.77C1207.42 614.424 1208.22 597.89 1210.87 586.629C1215.91 565.218 1228.02 543.965 1238.71 525.213C1240.62 521.862 1242.51 518.547 1244.32 515.284C1260.3 486.674 1277.55 460.294 1295.6 436.889C1314.12 412.898 1333.76 391.39 1353.94 372.971C1357.92 369.343 1361.94 365.879 1366 362.588V361C1361.7 364.465 1357.43 368.118 1353.23 371.958C1332.98 390.427 1313.3 411.985 1294.74 436.039C1276.65 459.493 1259.35 485.924 1243.36 514.592C1241.54 517.845 1239.65 521.16 1237.74 524.511C1227.02 543.34 1214.86 564.68 1209.76 586.306C1207.08 597.691 1206.26 614.424 1207.7 628.908C1208.93 641.405 1212.78 653.814 1220.19 669.164C1232.45 694.546 1249.84 716.295 1270.51 732.096C1292.6 748.994 1318.71 758.288 1346.04 758.949C1347.35 758.99 1348.67 759 1349.97 759C1355.41 759 1360.76 758.698 1366 758.149V756.848Z" fill="#F5F8ED"/>
<path fill-rule="evenodd" clip-rule="evenodd" d="M1366 734.863C1364.09 735.088 1362.16 735.287 1360.23 735.425C1335.7 737.112 1311.79 731.207 1291.12 718.327C1257.21 697.205 1224.67 654.01 1228.43 605.114C1230.51 578.101 1242 554.157 1252.95 534.323C1266.74 509.344 1282.81 485.552 1300.71 463.607C1318.09 442.286 1337.18 422.301 1357.42 404.2C1360.01 401.891 1362.9 399.32 1366 396.63V395C1362.62 397.909 1359.49 400.705 1356.71 403.189C1336.42 421.314 1317.29 441.35 1299.86 462.733C1281.91 484.728 1265.81 508.584 1251.97 533.638C1240.95 553.61 1229.4 577.718 1227.29 605.001C1225.58 627.284 1231.45 650.441 1244.31 671.962C1255.76 691.146 1272.19 708.024 1290.56 719.457C1309.1 731.007 1330.19 737 1352.01 737C1354.76 737 1357.53 736.913 1360.3 736.709C1362.2 736.586 1364.11 736.386 1366 736.177V734.863Z" fill="#F5F8ED"/>
<path fill-rule="evenodd" clip-rule="evenodd" d="M1366 716.752C1365.7 716.804 1365.41 716.85 1365.11 716.901C1343.81 719.802 1321.1 714.679 1301.18 702.484C1264.23 679.883 1242.8 638.843 1246.57 597.931C1250.83 551.696 1280.91 512.363 1308.75 479.126C1323.57 461.445 1340.51 443.927 1360.55 425.543C1362.29 423.948 1364.13 422.302 1366 420.657V419C1363.86 420.871 1361.81 422.729 1359.83 424.538C1339.75 442.947 1322.77 460.502 1307.93 478.221C1279.94 511.624 1249.74 551.156 1245.43 597.792C1241.61 639.234 1263.28 680.773 1300.64 703.641C1317.09 713.697 1335.41 719 1353.31 719C1357.32 719 1361.31 718.722 1365.26 718.198C1365.5 718.156 1365.75 718.105 1366 718.069V716.752Z" fill="#F5F8ED"/>
<path fill-rule="evenodd" clip-rule="evenodd" d="M1181.99 389.923C1164.72 389.923 1147.82 401.161 1132.13 413.311C1084.35 450.312 1061.05 488.774 1062.88 527.677C1065.53 551.848 1079.14 576.875 1097.54 591.359C1103.78 596.275 1111.24 601.313 1119.25 601.313C1121.13 601.313 1122.98 601.026 1124.77 600.488C1134.9 597.386 1142.21 587.427 1148.68 578.636C1178.45 538.162 1209.59 489.749 1215.29 436.998C1217.14 419.949 1212.52 397.861 1193.41 391.699C1189.75 390.517 1185.91 389.923 1181.99 389.923ZM1119.25 602.598C1110.93 602.598 1103.27 597.462 1096.88 592.424C1078.22 577.735 1064.43 552.36 1061.73 527.784C1059.88 488.361 1083.36 449.512 1131.49 412.237C1147.33 399.973 1164.4 388.623 1181.99 388.623C1186.01 388.623 1189.96 389.236 1193.72 390.449C1213.53 396.836 1218.33 419.599 1216.43 437.148C1210.69 490.249 1179.44 538.838 1149.63 579.373C1142.99 588.4 1135.54 598.538 1125.07 601.738C1123.18 602.311 1121.23 602.598 1119.25 602.598Z" fill="#F5F8ED"/>
<path fill-rule="evenodd" clip-rule="evenodd" d="M1366 694.906C1350.23 697.33 1333.88 694.896 1318.91 687.744C1286.13 672.066 1264.7 637.697 1265.6 602.199C1266.63 561.19 1293.31 525.36 1319.28 495.718C1332.65 480.453 1347.95 465.04 1366 448.628V442C1365.32 442.612 1364.64 443.223 1363.96 443.835C1345.41 460.646 1329.73 476.422 1316.02 492.073C1289.44 522.426 1262.11 559.243 1261.03 602.051C1260.08 639.666 1282.63 676.022 1317.14 692.509C1328.93 698.153 1341.55 701 1354.11 701C1358.09 701 1362.06 700.709 1366 700.136V694.906Z" fill="#F5F8ED"/>
<path fill-rule="evenodd" clip-rule="evenodd" d="M1366 675.521C1353.79 677.755 1340.78 677.056 1327.73 671.277C1302.3 660.02 1278.63 630.144 1282.58 594.816C1286.73 557.718 1310.11 528.026 1334.76 501.478C1343.83 491.703 1354.29 480.968 1366 470.632V469C1353.97 479.536 1343.24 490.544 1333.97 500.545C1309.16 527.256 1285.63 557.157 1281.44 594.653C1277.43 630.629 1301.47 661.04 1327.3 672.471C1336.09 676.373 1344.85 678 1353.37 678C1357.65 678 1361.88 677.577 1366 676.832V675.521Z" fill="#F5F8ED"/>
<path fill-rule="evenodd" clip-rule="evenodd" d="M1153.5 447.361C1143.05 447.361 1131.86 454.024 1127.55 456.899C1108.21 469.725 1090.56 495 1094.76 522.51C1098.57 536.975 1107.11 544.977 1118.8 544.977C1128.94 544.977 1140.2 538.587 1148.2 528.311C1169.17 501.349 1176.86 478.711 1171.06 461.037C1168.08 451.962 1162.17 447.361 1153.5 447.361ZM1118.8 546.272C1106.56 546.272 1097.62 537.937 1093.64 522.813C1089.34 494.611 1107.28 468.836 1126.97 455.774C1131.36 452.849 1142.76 446.061 1153.5 446.061C1162.7 446.061 1168.97 450.95 1172.13 460.586C1178.1 478.737 1170.33 501.812 1149.06 529.161C1140.86 539.714 1129.26 546.272 1118.8 546.272Z" fill="#F5F8ED"/>
<path fill-rule="evenodd" clip-rule="evenodd" d="M1366 649.799C1359.68 651.012 1353.65 651.002 1347.84 649.763C1323.57 644.614 1306.11 621.032 1307.21 594.926C1308.47 564.808 1328.51 540.039 1347.95 519.784C1353.67 513.831 1359.68 507.71 1366 501.699V500C1359.39 506.248 1353.11 512.633 1347.17 518.832C1327.56 539.266 1307.34 564.286 1306.05 594.865C1304.92 621.62 1322.8 645.76 1347.62 651.038C1350.64 651.672 1353.72 652 1356.86 652C1359.85 652 1362.88 651.698 1366 651.114V649.799Z" fill="#F5F8ED"/>
<path fill-rule="evenodd" clip-rule="evenodd" d="M434.107 477.087C433.139 477.087 432.177 477.098 431.211 477.111C400.684 477.586 369.647 488.175 338.965 508.574C303.931 531.86 288.964 558.023 294.466 586.311C305.91 626.063 333.707 694.185 391.185 703.175C394.809 703.739 398.517 704.025 402.196 704.025C429.254 704.025 454.171 688.711 477.071 672.163C484.643 666.69 492.475 661.263 500.042 656.025C519.499 642.56 539.611 628.648 557.565 612.264C558.79 611.138 560.074 609.986 561.403 608.788C577.886 593.914 600.466 573.547 599.988 549.14C599.369 517.949 562.947 506.173 538.846 498.374C536.765 497.712 534.789 497.074 532.958 496.461C508.152 488.149 470.919 477.087 434.107 477.087ZM402.196 705.326C402.196 705.326 402.201 705.326 402.196 705.326C398.461 705.326 394.703 705.039 391.03 704.461C332.935 695.378 304.905 626.749 293.365 586.664C287.724 557.685 302.875 531.061 338.382 507.448C369.241 486.937 400.467 476.287 431.194 475.812C469.057 475.225 507.756 486.662 533.282 495.212C535.112 495.823 537.084 496.461 539.156 497.137C563.584 505.037 600.498 516.976 601.131 549.114C601.627 574.161 578.788 594.759 562.113 609.797C560.788 611 559.514 612.152 558.289 613.273C540.276 629.713 520.132 643.65 500.643 657.136C493.071 662.374 485.253 667.786 477.69 673.249C454.644 689.915 429.549 705.326 402.196 705.326Z" fill="#F5F8ED"/>
<path fill-rule="evenodd" clip-rule="evenodd" d="M54.9194 599.848C53.7867 576.416 40.4277 559.252 28.9144 546.924C20.228 537.627 10.5326 528.954 0 521V522.572C10.2312 530.352 19.6594 538.801 28.1229 547.863C39.4799 560.038 52.6663 576.936 53.7707 599.924C54.7742 620.784 46.0594 638.473 38.571 649.627C27.7497 665.754 13.6874 678.777 0 691.331V693C13.9719 680.202 28.3956 666.939 39.4859 650.398C47.0907 639.07 55.9389 621.11 54.9194 599.848Z" fill="#F5F8ED"/>
<path fill-rule="evenodd" clip-rule="evenodd" d="M1366 614.7C1360.05 614.848 1354.29 612.913 1349.76 609.081C1344.35 604.497 1341.28 597.567 1341.14 589.587C1340.77 569.631 1354.51 553.757 1366 541.746V540C1354.2 552.27 1339.61 568.657 1340.01 589.612C1340.16 598.004 1343.38 605.289 1349.09 610.111C1353.66 613.98 1359.4 616 1365.36 616C1365.57 616 1365.79 615.975 1366 615.975V614.7Z" fill="#F5F8ED"/>
<path fill-rule="evenodd" clip-rule="evenodd" d="M439.186 504.461C408.3 504.461 368.586 516.049 349.754 548.571C343.112 560.061 340.333 574.264 341.945 588.548C345.802 618.009 358.858 643.573 377.757 658.672C388.607 667.351 400.99 671.739 414.564 671.739C414.568 671.739 414.568 671.739 414.568 671.739C426.503 671.739 439.181 668.375 452.248 661.749C477.116 649.123 504.418 628.551 527.158 605.276C548.112 583.812 554.687 564.935 546.705 549.15C538.728 533.385 521.511 524.835 505.725 518.563C489.556 512.127 472.231 507.7 454.221 505.399C449.375 504.774 444.317 504.461 439.186 504.461ZM414.568 673.039C414.568 673.039 414.568 673.039 414.564 673.039C400.746 673.039 388.14 668.564 377.1 659.737C357.941 644.439 344.712 618.552 340.811 588.723C339.165 574.11 342 559.61 348.798 547.86C367.88 514.912 407.999 503.162 439.186 503.162C444.361 503.162 449.464 503.474 454.35 504.099C472.44 506.412 489.857 510.861 506.103 517.334C522.094 523.698 539.534 532.372 547.702 548.51C555.871 564.664 549.027 584.621 527.923 606.238C505.101 629.601 477.695 650.26 452.721 662.927C439.498 669.634 426.663 673.039 414.568 673.039Z" fill="#F5F8ED"/>
<path fill-rule="evenodd" clip-rule="evenodd" d="M0 561.776C8.65112 571.1 14.2835 582.112 16.2023 593.808C19.4665 613.686 10.1346 631.859 0 645.044V647C10.6285 633.506 20.7532 614.509 17.318 593.572C15.2951 581.242 9.26568 569.679 0 560V561.776Z" fill="#F5F8ED"/>
<path fill-rule="evenodd" clip-rule="evenodd" d="M396.838 595.112C401.068 616.801 417.954 624.527 432.366 624.527C436.519 624.527 440.703 623.923 444.811 622.75C461.157 618.04 486.46 601.072 488.85 579.65C489.579 573.147 488.022 567.326 484.229 562.339C474.526 549.575 453.299 545.684 443.433 545.423C442.922 545.412 442.415 545.402 441.91 545.402C428.514 545.402 416.703 550.077 407.743 558.934C398.11 568.447 397.539 580.351 396.882 594.134L396.838 595.112ZM432.366 625.827C417.493 625.827 400.045 617.814 395.698 595.302L395.682 595.215L395.737 594.063C396.382 580.571 396.988 567.838 406.992 557.951C416.159 548.899 428.236 544.102 441.91 544.102C442.427 544.102 442.944 544.112 443.46 544.127C453.505 544.399 475.131 548.372 485.098 561.489C489.11 566.773 490.754 572.938 489.989 579.814C487.525 601.835 461.749 619.202 445.095 623.999C440.892 625.213 436.613 625.827 432.366 625.827Z" fill="#F5F8ED"/>
<path fill-rule="evenodd" clip-rule="evenodd" d="M1050.34 768C1060.94 750.899 1072.7 734.74 1084.16 719.022L1085.47 717.225C1086.41 715.95 1087.35 714.639 1088.33 713.277C1098.66 698.926 1111.5 681.047 1128.25 679.987C1147.54 678.773 1164.35 700.411 1174.37 713.339C1179.59 720.051 1184.81 726.927 1189.87 733.573C1198.53 744.96 1207.42 756.649 1216.58 768H1218.14C1208.75 756.388 1199.62 744.402 1190.74 732.723C1185.68 726.077 1180.44 719.201 1175.24 712.489C1165.07 699.376 1148.03 677.411 1128.18 678.697C1110.93 679.787 1097.9 697.897 1087.44 712.448C1086.48 713.815 1085.52 715.125 1084.59 716.4L1083.28 718.203C1071.63 734.162 1059.68 750.576 1048.93 768H1050.34Z" fill="#F5F8ED"/>
<path fill-rule="evenodd" clip-rule="evenodd" d="M494.219 768C494.223 767.985 494.228 767.974 494.242 767.974C528.373 724.823 564.955 698.537 602.961 689.828C632.103 683.151 655.885 682.726 675.669 688.512C685.859 691.497 692.416 696.699 695.162 703.964C696.359 707.138 702.051 723.225 696.359 728.34L696.196 728.489L696.15 728.714C693.723 742.287 689.466 755.328 684.512 768H685.768C690.631 755.487 694.807 742.625 697.243 729.2C703.167 723.512 697.962 708.085 696.218 703.447C693.327 695.803 686.506 690.35 675.951 687.262C656.003 681.41 632.053 681.835 602.734 688.563C564.477 697.313 527.686 723.753 493.386 767.099C493.153 767.401 492.921 767.703 492.689 768H494.219Z" fill="#F5F8ED"/>
<path fill-rule="evenodd" clip-rule="evenodd" d="M732.144 768C759.792 736.676 795.923 712.811 834.517 700.539C853.272 694.574 878.761 690.027 893.637 702.187C901.305 708.475 905.476 718.699 906.031 732.6C906.509 744.463 905.608 756.29 904.028 768H905.184C906.755 756.29 907.652 744.438 907.174 732.539C906.61 718.223 902.275 707.661 894.302 701.138C879.062 688.66 853.204 693.248 834.207 699.284C795.053 711.736 758.403 736.061 730.523 768H732.144Z" fill="#F5F8ED"/>
<path fill-rule="evenodd" clip-rule="evenodd" d="M513.529 768C536.405 737.326 565.97 716.411 597.247 708.874C613.921 704.86 637.23 702.812 653.503 715.873C668.652 728.023 668.616 749.389 665.916 765.174C665.747 766.111 665.57 767.063 665.383 768H666.558C666.726 767.14 666.886 766.274 667.036 765.414C669.804 749.261 669.814 727.378 654.164 714.813C637.549 701.486 613.912 703.539 597.006 707.599C565.196 715.264 535.153 736.65 512.022 768H513.529Z" fill="#F5F8ED"/>
<path fill-rule="evenodd" clip-rule="evenodd" d="M534.434 768C552.843 745.113 577.244 730.061 600.325 727.874C613.999 726.589 625.91 731.376 633.874 741.361C639.602 748.539 642.739 757.75 643.108 768H644.26C643.887 757.422 640.649 747.914 634.726 740.485C626.516 730.199 614.272 725.248 600.234 726.589C576.575 728.827 551.573 744.386 532.895 768H534.434Z" fill="#F5F8ED"/>
<path fill-rule="evenodd" clip-rule="evenodd" d="M1078.39 768C1091.44 749.327 1108.57 734.95 1123.09 731.202C1146.7 725.115 1167.38 746.875 1182.69 768H1184.18C1168.63 746.347 1147.39 723.599 1122.84 729.938C1107.87 733.788 1090.22 748.713 1076.95 768H1078.39Z" fill="#F5F8ED"/>
<path fill-rule="evenodd" clip-rule="evenodd" d="M762.419 768C777.468 757.688 793.418 750.315 809.296 746.926C838.952 740.603 857.907 747.699 865.657 768H866.9C859.041 746.675 839.598 739.149 809.082 745.651C792.631 749.148 775.902 756.849 759.97 768H762.419Z" fill="#F5F8ED"/>
<path fill-rule="evenodd" clip-rule="evenodd" d="M562.724 768C564.117 766.925 565.547 765.911 567.008 764.964C576.12 759.05 586.164 755.661 594.565 755.661C601.395 755.661 609.919 758.001 614.859 768H616.193C611.071 756.9 601.878 754.365 594.565 754.365C585.973 754.365 575.719 757.811 566.439 763.837C564.481 765.112 562.587 766.5 560.752 768H562.724Z" fill="#F5F8ED"/>
</svg>
