<svg width="272" height="381" viewBox="0 0 272 381" fill="none" xmlns="http://www.w3.org/2000/svg">
<path d="M8.63214 330.261C12.1718 335.865 19.9395 335.3 23.3809 334.317C28.1005 333.727 37.1464 326.942 41.0794 323.624C38.3754 312.808 31.4927 293.168 25.5932 301.132C18.2188 311.087 16.7439 309.613 14.9003 309.244C13.0568 308.875 13.7942 309.981 9.73828 308.506C6.49356 307.327 4.69912 309.49 4.2075 310.719C-1.692 311.456 1.25777 314.406 0.151611 319.568C-0.954545 324.73 4.20752 323.255 8.63214 330.261Z" fill="#FFF2E2"/>
<path d="M8.63214 330.261C12.1718 335.865 19.9395 335.3 23.3809 334.317C24.4871 334.05 28.1742 332.104 28.9117 326.942C29.5016 322.813 22.0289 316.372 18.2188 313.668C17.6289 311.014 15.7607 309.613 14.9003 309.244C13.0568 308.875 13.7942 309.981 9.73828 308.506C6.49356 307.326 4.69912 309.49 4.2075 310.719C-1.692 311.456 1.25777 314.406 0.151611 319.568C-0.954545 324.73 4.20752 323.255 8.63214 330.261Z" fill="#F1E4D3"/>
<path d="M192.254 274.953C191.369 269.938 189.181 266.472 188.198 265.366C188.567 253.813 191.369 234.32 199.628 248.774C209.953 266.841 203.684 274.953 199.628 278.271C195.573 281.59 193.36 281.221 192.254 274.953Z" fill="#C5B39D"/>
<path d="M68.7333 183.294C75.3703 181.154 91.0777 176.726 100.812 176.136C112.98 175.399 159.069 150.326 167.181 145.901C175.293 141.477 179.718 129.678 198.891 141.845C218.064 154.013 191.517 148.851 191.885 151.801C192.254 154.751 206.265 153.645 215.115 177.243C222.194 196.121 238.467 218.539 245.718 227.388C248.299 226.897 253.904 227.683 255.674 234.763C257.886 243.612 271.897 255.411 271.897 259.836C271.897 264.26 271.16 288.596 263.417 281.959C255.674 275.322 256.411 261.679 247.193 257.254C237.975 252.83 212.534 251.724 202.578 234.763C202.455 241.4 199.702 256.591 189.673 264.26C177.137 273.847 171.237 274.584 170.5 279.009C169.762 283.434 157.595 343.535 157.595 349.803C157.595 356.071 154.645 361.233 156.12 365.658C157.595 370.082 160.544 378.932 156.12 379.669C152.58 380.259 148.991 379.915 147.639 379.669L145.828 374.01C146.699 377.333 147.025 380.831 144.689 380.407C140.633 379.669 131.047 381.513 133.628 374.876C133.738 374.594 133.839 374.339 133.931 374.111C133.065 375.571 131.537 377.498 129.572 377.826C125.361 378.527 117.143 380.231 120.49 373.084C119.098 375.452 116.488 378.133 113.717 375.613C109.661 371.926 118.142 366.764 123.304 361.602C128.466 356.44 132.153 351.646 133.628 344.272C135.103 336.898 138.421 324.73 137.684 319.568C136.946 314.406 135.471 309.613 135.103 305.925C118.756 305.311 83.8508 298.92 75.0016 278.271C66.3981 293.266 46.8314 323.698 37.3922 325.467C25.5932 327.68 22.6435 312.931 23.0122 307.4C23.3809 301.869 41.0794 272.003 42.1855 263.891C43.0705 257.402 60.2528 207.456 68.7333 183.294Z" fill="#FFF2E2"/>
<path d="M189.673 264.26C199.702 256.591 202.455 241.4 202.578 234.763C202.578 233.042 205.054 219.096 203.316 223.332C191.517 252.092 180.086 245.087 167.919 247.299C158.185 249.069 165.583 269.176 170.5 279.009C171.237 274.584 177.137 273.847 189.673 264.26Z" fill="#E7D8C6"/>
<path d="M255.674 234.763C253.904 227.683 248.299 226.897 245.718 227.388C242.769 223.332 235.394 214.114 229.495 209.69C222.12 204.159 190.779 168.025 197.785 179.086C203.389 187.935 203.316 219.891 202.578 234.763C212.534 251.724 237.975 252.83 247.193 257.254C256.411 261.679 255.674 275.322 263.417 281.959C271.16 288.596 271.897 264.26 271.897 259.836C271.897 255.411 257.886 243.612 255.674 234.763Z" fill="#F0E4D5"/>
<path d="M170.5 279.417C169.762 283.842 157.595 343.943 157.595 350.211C157.595 356.479 154.645 361.641 156.12 366.066C157.595 370.491 160.544 379.34 156.12 380.077C152.58 380.667 148.991 380.323 147.639 380.077L145.828 374.418C146.699 377.741 147.025 381.239 144.689 380.815C140.633 380.077 131.047 381.921 133.628 375.284C133.738 375.002 133.839 374.747 133.931 374.519C133.065 375.979 131.536 377.906 129.572 378.234C125.361 378.935 117.143 380.639 120.49 373.492C119.098 375.86 116.488 378.541 113.717 376.021C109.661 372.334 118.142 367.172 123.304 362.01C128.466 356.848 132.153 352.055 133.628 344.68C135.103 337.306 138.421 325.138 137.684 319.976C136.946 314.814 135.471 310.021 135.103 306.333C118.756 305.719 83.8508 299.328 75.0015 278.68C85.2027 247.83 109.44 185.91 124.779 185.025C143.952 183.919 149.114 206.411 157.595 216.735C166.075 227.059 170.5 239.595 172.712 252.132C174.482 262.161 171.975 274.501 170.5 279.417Z" fill="#F0E4D5"/>
<path d="M135.103 305.925C119.421 305.336 86.6601 299.43 76.2079 280.721C75.5222 279.94 75.1039 279.125 75.0015 278.271C75.3615 279.111 75.7646 279.928 76.2079 280.721C82.9299 288.38 115.349 292.761 127.728 297.445C138.642 301.574 155.874 290.316 163.125 284.171C157.226 296.265 141.985 303.713 135.103 305.925Z" fill="#E7D8C6"/>
<path d="M172.712 251.724C172.662 251.438 172.61 251.153 172.557 250.867C171.299 245.838 163.87 239.543 157.595 232.919C150.958 225.913 146.164 217.802 142.108 208.215C138.864 200.546 129.203 189.287 124.779 184.617C143.952 183.511 149.114 206.003 157.595 216.327C165.882 226.416 170.296 238.617 172.557 250.867C172.63 251.157 172.682 251.443 172.712 251.724Z" fill="#E7D8C6"/>
<path d="M117.404 259.836C104.425 281.664 79.3032 281.221 68.3646 278.271L49.5599 200.841C52.5097 191.991 65.4148 176.284 93.4374 184.248C128.466 194.204 133.628 232.55 117.404 259.836Z" fill="#40722A"/>
<path d="M96.0185 161.388C91.5938 165.517 92.4542 182.036 93.4374 189.779L109.661 214.483L125.516 212.271C129.203 208.215 125.516 197.153 125.516 186.829C125.516 176.505 122.198 151.801 113.348 149.22C104.499 146.639 101.549 156.226 96.0185 161.388Z" fill="#F0E1CF"/>
<path d="M112.611 193.835C114.971 195.9 111.628 199.857 109.661 201.578H118.142C123.672 201.578 123.304 190.885 122.935 180.561C122.566 170.237 116.667 151.432 112.611 151.432C108.555 151.432 107.08 155.857 100.812 163.231C94.5436 170.606 109.661 191.254 112.611 193.835Z" fill="#DBC0B5"/>
<path d="M39.6045 164.706C43.1442 177.095 45.2582 187.321 45.8727 190.885C53.37 189.287 68.3646 185.502 68.3646 183.142C68.3646 180.192 55.8281 157.332 48.085 148.851C40.3419 140.371 35.1799 149.22 39.6045 164.706Z" fill="#FFF2E2"/>
<path d="M42.1855 147.376C36.581 150.326 46.4872 175.153 52.1409 187.198L58.7779 185.17L65.4148 183.142C64.7331 179.455 62.0826 171.343 56.9343 168.393C50.4988 164.706 49.1912 143.689 42.1855 147.376Z" fill="#DBC0B5"/>
<path d="M156.537 182.262C142.003 228.875 83.1761 250.654 55.5791 255.716L43.6162 258.388L55.7368 266.715C110.566 254.428 136.32 237.057 161.223 195.196C186.126 153.335 167.397 102.598 225.824 62.257C234.786 24.6247 248.005 4.93328 262.033 6.73246C241.097 -2.56851 225.1 34.9312 219.718 54.8437C172.203 89.0281 174.704 123.996 156.537 182.262Z" fill="#40722A"/>
<path d="M225.824 62.257C272.567 29.9839 269.439 11.7935 262.033 6.73247C259.334 6.38632 256.665 6.83564 254.051 8.05514C259.54 11.7408 262.131 25.633 228.578 51.7165C227.621 55.0556 226.702 58.5702 225.824 62.257Z" fill="#21500D"/>
<path d="M58.4092 184.986C43.6604 187.935 36.286 201.455 34.4425 207.846C31.2254 211.533 26.4201 222.447 32.9354 236.606C30.7773 240.257 29.0645 244.566 28.1742 249.511C25.5195 264.26 35.6715 265.981 41.0794 264.998C37.3922 279.378 40.342 283.802 52.8784 285.277C65.4148 286.752 73.1579 278.64 90.8564 270.528C108.555 262.417 110.03 252.83 114.823 243.612C119.617 234.394 125.147 231.444 127.36 224.439C129.572 217.433 121.46 203.053 114.823 200.841C108.186 198.628 107.449 207.846 98.2308 194.572C90.8542 183.95 81.5885 181.828 68.7333 183.294C65.5244 183.66 62.0918 184.249 58.4092 184.986Z" fill="#FFF2E2"/>
<path d="M41.4481 264.998C38.1296 265.366 24.487 266.841 28.5429 248.036C32.5988 229.232 44.3978 225.913 46.9789 224.438C49.5599 222.964 54.722 223.332 59.884 228.126C65.0461 232.919 65.0461 251.355 81.6385 244.718C98.2308 238.081 102.655 242.137 100.812 248.036C98.9682 253.936 92.7 269.422 84.2195 273.847C75.7389 278.271 65.7835 285.646 57.303 285.277C48.8225 284.908 39.2358 285.473 39.2358 275.322C39.2358 267.2 40.7107 265.055 41.4481 264.998Z" fill="#EEE1D1"/>
<path d="M41.4481 264.998C44.1029 264.703 46.2415 253.567 46.9789 248.036C47.1018 253.199 51.3298 263.154 67.2584 261.679C87.1693 259.835 87.7893 246.193 93.4375 249.511C99.0857 252.83 83.8508 267.947 79.0574 271.635C74.2641 275.322 39.6045 293.389 41.4481 264.998Z" fill="#BC8282"/>
<path d="M61.7276 292.651C53.7633 287.637 52.5096 267.702 52.8784 258.361C65.2919 255.411 87.7592 251.429 78.32 259.098C66.521 268.685 75.3702 275.69 85.6944 279.378C96.0185 283.065 89.3815 295.601 83.8508 297.814C78.32 300.026 71.683 298.92 61.7276 292.651Z" fill="#EFAAAA"/>
<ellipse cx="79.4261" cy="227.388" rx="7.37438" ry="7.00566" fill="#4F4436"/>
<ellipse cx="38.1296" cy="225.913" rx="5.16206" ry="4.79334" fill="#4F4436"/>
<circle cx="82.0072" cy="225.176" r="1.10616" fill="white"/>
<circle cx="39.6045" cy="224.07" r="0.737438" fill="white"/>
<path d="M46.9789 224.438C44.3978 225.913 32.5988 229.232 28.5429 248.036H46.9789C47.1018 253.199 51.3298 263.154 67.2584 261.679C87.1692 259.836 87.7893 246.193 93.4375 249.511L100.812 248.036C102.655 242.137 98.2308 238.081 81.6385 244.718C65.0461 251.355 65.0461 232.919 59.8841 228.126C54.722 223.332 49.5599 222.964 46.9789 224.438Z" fill="#EEE1D1"/>
<path d="M41.4481 232.919C38.2034 235.279 42.8001 239.802 45.504 241.768C49.9287 244.718 52.8784 238.819 54.722 236.975C56.5656 235.131 56.5656 232.919 52.8784 231.444C49.1912 229.969 45.504 229.969 41.4481 232.919Z" fill="#4F4436"/>
<ellipse cx="4.42735" cy="317.469" rx="2.58103" ry="3.31847" transform="rotate(-30.4593 4.42735 317.469)" fill="#78654D"/>
<ellipse cx="4.35004" cy="323.488" rx="1.95255" ry="2.51042" transform="rotate(-65.6393 4.35004 323.488)" fill="#78654D"/>
<ellipse cx="14.1655" cy="315.523" rx="1.95255" ry="2.51042" transform="rotate(-16.4523 14.1655 315.523)" fill="#78654D"/>
<ellipse cx="8.85198" cy="314.519" rx="2.58103" ry="3.31847" transform="rotate(-30.4593 8.85198 314.519)" fill="#78654D"/>
<path d="M10.107 319.199C11.5819 318.314 15.392 319.568 17.1127 320.305C20.4312 321.043 23.0122 325.099 23.7496 326.942C24.487 328.786 21.5373 332.473 17.1127 332.473C12.6881 332.473 9.73832 328.048 8.63217 325.467C7.52601 322.886 8.26345 320.305 10.107 319.199Z" fill="#78654D"/>
<path d="M76.4605 213.487C77.598 210.947 83.2419 210.926 85.8246 212.554C87.1822 213.41 91.0898 216.45 91.8671 219.916C92.8388 224.249 86.2875 219.944 82.433 218.988C78.5784 218.033 75.0386 216.661 76.4605 213.487Z" fill="#EFE2D1"/>
<path d="M42.4473 212.994C41.3304 211.146 36.9822 211.666 35.1477 213.164C34.1835 213.952 31.4628 216.664 31.193 219.407C30.8558 222.835 35.4924 218.899 38.37 217.797C41.2476 216.696 43.8435 215.304 42.4473 212.994Z" fill="#EFE2D1"/>
</svg>
