<svg width="105" height="104" viewBox="0 0 105 104" fill="none" xmlns="http://www.w3.org/2000/svg">
<path d="M105 52C105 80.7188 81.4949 104 52.5 104C23.5051 104 0 80.7188 0 52C0 23.2812 23.5051 0 52.5 0C81.4949 0 105 23.2812 105 52Z" fill="#FFC5AB"/>
<path d="M78.3646 59.9218C78.3646 59.9218 82.25 65.8088 79.2476 68.6935C76.2452 71.5781 73.3606 65.1024 73.3606 65.1024L71.2413 61.4524L74.8912 54.9767C74.8323 54.9179 77.4226 58.2146 78.3646 59.9218Z" fill="#EFEFEF"/>
<path d="M36.1547 80.7618C33.9176 80.7618 32.0927 78.9369 32.0927 76.6998V75.4635H40.2167V76.6998C40.2167 78.9369 38.3918 80.7618 36.1547 80.7618Z" fill="white"/>
<path d="M69.2397 80.7618C67.0615 80.7618 65.2954 78.9957 65.2954 76.8175V75.5224H73.184V76.8175C73.184 78.9957 71.4179 80.7618 69.2397 80.7618Z" fill="#EFEFEF"/>
<path d="M42.5127 31.0755C48.8118 29.2505 55.4641 29.2505 61.7632 31.0755H61.822C67.4147 32.665 71.7711 37.1391 73.184 42.7907C74.4791 48.089 75.8331 65.2202 75.8331 70.283C75.8331 70.283 76.4807 80.7619 52.1674 80.7619C27.854 80.7619 28.6193 70.283 28.6193 70.283C28.6193 70.283 28.6193 62.9831 28.7959 59.8041C29.0314 55.3889 29.679 48.9131 31.1507 42.8495C32.0338 39.3173 34.0354 36.1972 36.8023 34.019C38.5095 32.665 40.4522 31.6642 42.5127 31.0755Z" fill="#F2F2F2"/>
<path d="M42.5127 31.0755C48.8118 29.2505 55.4641 29.2505 61.7632 31.0755H61.822C67.4147 32.665 71.7711 37.1391 73.184 42.7907C74.4791 48.089 75.8331 65.2202 75.8331 70.283C75.8331 70.283 76.4807 80.7619 52.1674 80.7619C27.854 80.7619 28.6193 70.283 28.6193 70.283C28.6193 70.283 28.6193 62.9831 28.7959 59.8041C29.0314 55.3889 29.679 48.9131 31.1507 42.8495C32.0338 39.3173 34.0354 36.1972 36.8023 34.019C38.5095 32.665 40.4522 31.6642 42.5127 31.0755Z" fill="white"/>
<path d="M43.1013 55.742H40.4522C38.9804 55.742 37.803 54.5646 37.803 53.0929C37.803 51.6211 38.9804 50.4437 40.4522 50.4437H43.1013C44.5731 50.4437 45.7505 51.6211 45.7505 53.0929C45.6916 54.5058 44.5142 55.742 43.1013 55.742Z" fill="#FFD2D2"/>
<path d="M70.8881 55.742H68.2389C66.7672 55.742 65.5898 54.5646 65.5898 53.0929C65.5898 51.6211 66.7672 50.4437 68.2389 50.4437H70.8881C72.3598 50.4437 73.5372 51.6211 73.5372 53.0929C73.5372 54.5058 72.3598 55.742 70.8881 55.742Z" fill="#FFD2D2"/>
<path d="M66.2373 49.2664C67.6679 49.2664 68.8276 48.1066 68.8276 46.6761C68.8276 45.2455 67.6679 44.0858 66.2373 44.0858C64.8067 44.0858 63.647 45.2455 63.647 46.6761C63.647 48.1066 64.8067 49.2664 66.2373 49.2664Z" fill="black"/>
<path d="M45.2207 49.2664C46.6513 49.2664 47.811 48.1066 47.811 46.6761C47.811 45.2455 46.6513 44.0858 45.2207 44.0858C43.7901 44.0858 42.6304 45.2455 42.6304 46.6761C42.6304 48.1066 43.7901 49.2664 45.2207 49.2664Z" fill="black"/>
<path d="M40.9231 32.4295C40.6877 32.4295 40.3933 32.2529 40.3344 32.0763C38.5095 27.249 38.0385 23.4224 39.0393 21.7152C39.3925 21.1265 39.8635 20.8321 40.6288 20.7144C40.7465 20.7144 40.8643 20.7144 40.982 20.7144C43.6312 20.7144 45.6916 25.7183 46.7513 30.4279C46.8102 30.7223 46.6335 31.0166 46.3392 31.1344L41.0998 32.4295C41.0409 32.4295 40.982 32.4295 40.9231 32.4295Z" fill="#FFD2D2"/>
<path d="M40.982 21.8918C42.2772 21.8918 44.2199 24.7175 45.4561 30.1336L41.2764 31.1932C39.5691 26.5425 39.4514 23.4224 40.099 22.3627C40.1578 22.245 40.2756 22.0095 40.8054 21.9506C40.8643 21.8918 40.9232 21.8918 40.982 21.8918ZM40.982 19.537C40.8054 19.537 40.6288 19.537 40.4522 19.5958C35.2127 20.3611 37.9208 29.015 39.2159 32.4884C39.4514 33.1948 40.1578 33.6069 40.9231 33.6069C41.0409 33.6069 41.2175 33.6069 41.3352 33.548L46.5747 32.2529C47.5166 32.0174 48.1053 31.0755 47.8698 30.1924C47.1634 26.8368 45.1029 19.537 40.982 19.537Z" fill="white"/>
<path d="M63.647 32.8416C63.5882 32.8416 63.5293 32.8416 63.5293 32.8416L58.2899 31.5464C57.9955 31.4876 57.76 31.1343 57.8778 30.84C58.9374 26.1304 60.9979 21.1264 63.647 21.1264C63.7648 21.1264 63.8825 21.1264 64.0002 21.1264C64.7656 21.2442 65.2365 21.5385 65.5897 22.1272C66.5905 23.8345 66.1196 27.661 64.2946 32.4884C64.118 32.665 63.9414 32.8416 63.647 32.8416Z" fill="#FFD2D2"/>
<path d="M63.5881 19.8902V22.245C63.647 22.245 63.7059 22.245 63.7647 22.245C64.2946 22.3038 64.4123 22.5393 64.4712 22.6571C65.1188 23.7167 64.9421 26.8368 63.2938 31.4876L59.114 30.4279C60.4092 25.0119 62.293 22.1861 63.5881 22.1861V19.8902ZM63.5881 19.8902C59.4672 19.8902 57.4068 27.1901 56.7003 30.5457C56.5237 31.4876 57.0536 32.4295 57.9955 32.6061L63.2349 33.9012C63.3527 33.9601 63.5293 33.9601 63.647 33.9601C64.3535 33.9601 65.0599 33.4892 65.2954 32.8416C66.5905 29.3094 69.2985 20.6555 64.0591 19.949C63.9414 19.949 63.7647 19.8902 63.5881 19.8902Z" fill="white"/>
<path d="M59.5261 78.4659H51.9908C46.8691 78.4659 42.6304 74.2861 42.6304 69.1055C42.6304 63.9839 46.8102 59.7452 51.9908 59.7452H59.5261C64.6478 59.7452 68.8865 63.925 68.8865 69.1055C68.8276 74.2861 64.6478 78.4659 59.5261 78.4659Z" fill="#F4F4F4"/>
<path d="M25.5581 61.1581C25.5581 61.1581 21.7315 67.0451 24.675 69.9298C27.6185 72.8144 30.562 66.3387 30.562 66.3387L32.6814 62.6887L29.0314 56.213C29.0314 56.1542 26.5 59.4509 25.5581 61.1581Z" fill="white"/>
<path fill-rule="evenodd" clip-rule="evenodd" d="M55.3908 72.5645C55.5613 72.394 55.8378 72.394 56.0083 72.5645L58.6574 75.2137C58.828 75.3842 58.828 75.6606 58.6574 75.8311C58.4869 76.0016 58.2105 76.0016 58.04 75.8311L55.3908 73.182C55.2203 73.0115 55.2203 72.735 55.3908 72.5645Z" fill="#FFD2D2"/>
<path fill-rule="evenodd" clip-rule="evenodd" d="M58.6574 72.5645C58.828 72.735 58.828 73.0115 58.6574 73.182L56.0083 75.8311C55.8378 76.0016 55.5613 76.0016 55.3908 75.8311C55.2203 75.6606 55.2203 75.3842 55.3908 75.2137L58.04 72.5645C58.2105 72.394 58.4869 72.394 58.6574 72.5645Z" fill="#FFD2D2"/>
<path fill-rule="evenodd" clip-rule="evenodd" d="M60.2885 47.6194C60.4503 47.943 60.3191 48.3364 59.9956 48.4981L56.7592 50.1163L53.7583 48.6159C53.4348 48.4541 53.3036 48.0607 53.4654 47.7372C53.6272 47.4137 54.0206 47.2825 54.3441 47.4443L56.7592 48.6519L59.4098 47.3265C59.7334 47.1648 60.1267 47.2959 60.2885 47.6194Z" fill="#FFD2D2"/>
<path fill-rule="evenodd" clip-rule="evenodd" d="M56.7592 48.7292C57.1209 48.7292 57.4142 49.0224 57.4142 49.3841V51.2091H56.7592C57.4142 51.2091 57.4142 51.2094 57.4142 51.2097L57.4142 51.2105L57.4142 51.212L57.4141 51.2157L57.414 51.2249L57.4133 51.2508C57.4126 51.2713 57.4113 51.2982 57.4089 51.3307C57.4042 51.3954 57.3949 51.4833 57.377 51.5871C57.3418 51.7916 57.2701 52.0738 57.1202 52.3636C56.9688 52.6563 56.7325 52.9658 56.3689 53.2C56.0023 53.4363 55.5448 53.5712 54.9931 53.5712C54.2607 53.5712 53.7031 53.347 53.2889 53.0156C53.0064 52.7897 52.9606 52.3775 53.1866 52.0951C53.4125 51.8126 53.8247 51.7668 54.1071 51.9928C54.2815 52.1323 54.5482 52.2614 54.9931 52.2614C55.3245 52.2614 55.5293 52.1829 55.6594 52.099C55.7925 52.0132 55.8874 51.8958 55.9568 51.7618C56.0276 51.6247 56.0663 51.4801 56.0862 51.3645C56.0959 51.3082 56.1005 51.2628 56.1026 51.2342C56.1037 51.2199 56.1041 51.2102 56.1043 51.2057C56.1043 51.2052 56.1043 51.2047 56.1043 51.2044V49.3841C56.1043 49.0224 56.3975 48.7292 56.7592 48.7292Z" fill="#FFD2D2"/>
<path fill-rule="evenodd" clip-rule="evenodd" d="M57.4138 51.1858C57.4138 51.1858 57.4138 51.1858 57.4138 51.1858L57.4138 51.1858L57.4137 51.1852L57.4137 51.184L57.4136 51.1822L57.4135 51.1801C57.4135 51.1797 57.4135 51.1799 57.4136 51.1807C57.4136 51.1824 57.4137 51.1841 57.4138 51.1858C57.4138 51.1858 57.4138 51.1858 57.4138 51.1858ZM56.7592 51.209L56.1047 51.2316C56.0922 50.8701 56.3752 50.567 56.7367 50.5545C57.0962 50.5421 57.3981 50.8219 57.4136 51.1807C57.4136 51.1811 57.4136 51.1817 57.4137 51.1824C57.414 51.1867 57.4147 51.1962 57.4163 51.2103C57.4194 51.2385 57.4257 51.2836 57.4376 51.3396C57.462 51.4543 57.5069 51.5997 57.586 51.7388C57.7233 51.98 57.9873 52.2613 58.6431 52.2613C59.088 52.2613 59.3547 52.1323 59.5291 51.9928C59.8115 51.7668 60.2237 51.8126 60.4496 52.0951C60.6756 52.3775 60.6298 52.7896 60.3474 53.0156C59.9331 53.347 59.3756 53.5712 58.6431 53.5712C57.474 53.5712 56.796 52.9989 56.4476 52.3865C56.2839 52.0988 56.2 51.8174 56.1564 51.612C56.1342 51.508 56.1216 51.4197 56.1144 51.3546C56.1108 51.3219 56.1085 51.2947 56.107 51.274C56.1063 51.2637 56.1058 51.2549 56.1054 51.2478L56.105 51.2384L56.1048 51.2347L56.1048 51.2331L56.1047 51.2323C56.1047 51.232 56.1047 51.2316 56.7592 51.209Z" fill="#FFD2D2"/>
</svg>
