<svg width="105" height="104" viewBox="0 0 105 104" fill="none" xmlns="http://www.w3.org/2000/svg">
<path d="M105 52C105 80.7188 81.4949 104 52.5 104C23.5051 104 0 80.7188 0 52C0 23.2812 23.5051 0 52.5 0C81.4949 0 105 23.2812 105 52Z" fill="#AFD157"/>
<g clip-path="url(#clip0)">
<path d="M65.8898 78.2304C63.6527 78.2304 61.8866 76.4643 61.8866 74.2273V72.8733H69.8929V74.2273C69.8929 76.4643 68.068 78.2304 65.8898 78.2304Z" fill="#4B9B3A"/>
<path d="M76.8984 60.5694C76.8984 60.5694 80.4306 66.633 77.3105 69.3411C74.1904 72.0491 71.6001 65.4556 71.6001 65.4556L69.6574 61.6879L73.6606 55.3888C73.7194 55.33 76.0742 58.7444 76.8984 60.5694Z" fill="#4B9B3A"/>
<path d="M29.6847 55.3888C29.6847 55.3888 22.6203 80.0554 54.1157 78.2304C80.9016 76.6409 73.6606 55.3888 73.6606 55.3888C75.7799 53.3873 77.0751 50.5615 77.0751 47.3825C77.0751 43.1439 74.7203 39.4939 71.1881 37.6101C71.3647 36.9625 71.4824 36.2561 71.4824 35.5496C71.5413 31.2521 68.0091 27.7788 63.7116 27.7788C60.5326 27.7788 57.8246 29.6626 56.5883 32.3118H56.1762H48.7586H48.5231C47.2868 29.6626 44.5788 27.7788 41.3998 27.7788C37.1023 27.7788 33.629 31.2521 33.629 35.6085C33.629 36.0795 33.6878 36.5504 33.7467 36.9625C29.3903 38.4343 26.2702 42.5552 26.2702 47.3825C26.2702 50.5615 27.6242 53.3873 29.6847 55.3888Z" fill="#49B236"/>
<path d="M37.3378 78.2304C35.2773 78.2304 33.5701 76.5232 33.5701 74.4628V72.8733H41.0466V74.4628C41.0466 76.5821 39.3982 78.2304 37.3378 78.2304Z" fill="#49B236"/>
<mask id="mask0" mask-type="alpha" maskUnits="userSpaceOnUse" x="26" y="27" width="52" height="52">
<path d="M29.6847 55.3888C29.6847 55.3888 22.6203 80.0554 54.1157 78.2304C80.9016 76.6409 73.6606 55.3888 73.6606 55.3888C75.7799 53.3873 77.0751 50.5615 77.0751 47.3825C77.0751 43.1439 74.7203 39.4939 71.1881 37.6101C71.3647 36.9625 71.4824 36.2561 71.4824 35.5496C71.5413 31.2521 68.0091 27.7788 63.7116 27.7788C60.5326 27.7788 57.8246 29.6626 56.5883 32.3118H56.1762H48.7586H48.5231C47.2868 29.6626 44.5788 27.7788 41.3998 27.7788C37.1023 27.7788 33.629 31.2521 33.629 35.6085C33.629 36.0795 33.6878 36.5504 33.7467 36.9625C29.3903 38.4343 26.2702 42.5552 26.2702 47.3825C26.2702 50.5615 27.6242 53.3873 29.6847 55.3888Z" fill="#49B236"/>
</mask>
<g mask="url(#mask0)">
<path d="M60.1205 57.2727H46.5804C43.107 57.2727 40.2224 60.1573 40.2224 63.6306V77.1708C40.2224 80.6441 43.107 83.5287 46.5804 83.5287H60.1205C63.5938 83.5287 66.4785 80.6441 66.4785 77.1708V63.6306C66.4785 60.0984 63.5938 57.2727 60.1205 57.2727Z" fill="#9CD43D"/>
</g>
<path d="M63.8293 41.4955C65.2599 41.4955 66.4196 40.3358 66.4196 38.9052C66.4196 37.4747 65.2599 36.3149 63.8293 36.3149C62.3987 36.3149 61.239 37.4747 61.239 38.9052C61.239 40.3358 62.3987 41.4955 63.8293 41.4955Z" fill="black"/>
<path d="M42.8127 41.4955C44.2433 41.4955 45.403 40.3358 45.403 38.9052C45.403 37.4747 44.2433 36.3149 42.8127 36.3149C41.3821 36.3149 40.2224 37.4747 40.2224 38.9052C40.2224 40.3358 41.3821 41.4955 42.8127 41.4955Z" fill="black"/>
<path d="M26.8 60.746C26.8 60.746 23.5622 66.9863 26.8 69.5177C30.0379 72.0491 32.2749 65.3379 32.2749 65.3379L34.041 61.5113L29.7435 55.3889C29.7435 55.3889 27.5064 58.9211 26.8 60.746Z" fill="#49B236"/>
<path d="M50.8779 41.5544H57.0004C58.2955 41.5544 59.1786 42.9084 58.5899 44.0858C57.9423 45.4398 56.6472 46.8527 53.9391 46.8527C51.2311 46.8527 49.936 45.4398 49.2884 44.0858C48.7586 42.8495 49.6416 41.5544 50.8779 41.5544Z" fill="white"/>
<path d="M70.1872 50.2672C72.7232 50.2672 74.7791 48.3167 74.7791 45.9108C74.7791 43.5048 72.7232 41.5544 70.1872 41.5544C67.6512 41.5544 65.5953 43.5048 65.5953 45.9108C65.5953 48.3167 67.6512 50.2672 70.1872 50.2672Z" fill="#9CD43D"/>
<path d="M37.7498 50.2672C40.2858 50.2672 42.3417 48.3167 42.3417 45.9108C42.3417 43.5048 40.2858 41.5544 37.7498 41.5544C35.2138 41.5544 33.158 43.5048 33.158 45.9108C33.158 48.3167 35.2138 50.2672 37.7498 50.2672Z" fill="#9CD43D"/>
<path fill-rule="evenodd" clip-rule="evenodd" d="M52.9794 70.0955C53.1479 69.9231 53.4244 69.92 53.5968 70.0885L56.2459 72.6788C56.4184 72.8474 56.4215 73.1238 56.2529 73.2963C56.0843 73.4687 55.8079 73.4718 55.6354 73.3032L52.9863 70.7129C52.8139 70.5443 52.8108 70.2679 52.9794 70.0955Z" fill="#49B236"/>
<path fill-rule="evenodd" clip-rule="evenodd" d="M56.2529 70.0955C56.4215 70.2679 56.4184 70.5443 56.2459 70.7129L53.5968 73.3032C53.4244 73.4718 53.1479 73.4687 52.9794 73.2963C52.8108 73.1238 52.8139 72.8474 52.9863 72.6788L55.6354 70.0885C55.8079 69.92 56.0843 69.9231 56.2529 70.0955Z" fill="#49B236"/>
</g>
<defs>
<clipPath id="clip0">
<rect width="53.2774" height="55.6911" fill="white" transform="translate(25.3282 27.7788)"/>
</clipPath>
</defs>
</svg>
