<svg width="392" height="465" viewBox="0 0 392 465" fill="none" xmlns="http://www.w3.org/2000/svg">
<path d="M68.2968 356.119C104.884 379.535 99.6808 436.449 102.445 464.418C158.221 452.223 283.92 443.149 283.92 430.27C283.92 396.122 320.362 402.146 346.85 373.681C379.535 338.557 364.412 300.506 358.558 239.527C353.875 190.743 375.901 154.652 392 134L386.853 0H19.0255C21.3021 71.5491 0 198.061 0 215.623C0 237.575 11.9511 320.058 68.2968 356.119Z" fill="url(#paint0_linear)"/>
<mask id="mask0" mask-type="alpha" maskUnits="userSpaceOnUse" x="0" y="0" width="392" height="465">
<path d="M68.2968 356.119C104.884 379.535 99.6808 436.449 102.445 464.418C158.221 452.223 283.92 443.149 283.92 430.27C283.92 396.122 320.362 402.146 346.85 373.681C379.535 338.557 364.412 300.506 358.558 239.527C353.875 190.743 375.901 154.652 392 134L386.853 0H19.0255C21.3021 71.5491 0 198.061 0 215.623C0 237.575 11.9511 320.058 68.2968 356.119Z" fill="#76B659"/>
</mask>
<g mask="url(#mask0)">
<rect x="-23.9039" y="175.133" width="138.545" height="305.384" rx="5" fill="#6A9F52"/>
<rect x="-8.29318" y="190.743" width="107.324" height="9.75669" rx="4.87834" fill="#54893C"/>
<rect x="-8.29318" y="208.305" width="107.324" height="9.75669" rx="4.87834" fill="#54893C"/>
<rect x="-8.29318" y="225.867" width="107.324" height="9.75669" rx="4.87834" fill="#54893C"/>
<rect x="-8.29318" y="243.429" width="107.324" height="9.75669" rx="4.87834" fill="#54893C"/>
<rect x="-8.29318" y="260.991" width="107.324" height="9.75669" rx="4.87834" fill="#54893C"/>
<rect x="-8.29318" y="278.553" width="107.324" height="9.75669" rx="4.87834" fill="#54893C"/>
<rect x="-8.29318" y="296.115" width="107.324" height="9.75669" rx="4.87834" fill="#54893C"/>
<rect x="-8.29318" y="313.678" width="107.324" height="9.75669" rx="4.87834" fill="#54893C"/>
<rect x="-8.29318" y="331.24" width="107.324" height="9.75669" rx="4.87834" fill="#54893C"/>
<rect x="-8.29318" y="348.802" width="107.324" height="9.75669" rx="4.87834" fill="#54893C"/>
<rect x="-8.29318" y="366.364" width="107.324" height="9.75669" rx="4.87834" fill="#54893C"/>
<rect x="-8.29318" y="383.926" width="107.324" height="9.75669" rx="4.87834" fill="#54893C"/>
<rect x="-8.29318" y="401.488" width="107.324" height="9.75669" rx="4.87834" fill="#54893C"/>
<rect x="-8.29318" y="419.05" width="107.324" height="9.75669" rx="4.87834" fill="#54893C"/>
<rect x="-8.29318" y="436.612" width="107.324" height="9.75669" rx="4.87834" fill="#54893C"/>
<rect x="-8.29318" y="454.174" width="107.324" height="9.75669" rx="4.87834" fill="#54893C"/>
<rect x="130.252" y="235.624" width="55.6131" height="256.601" rx="3" fill="#6A9F52"/>
<rect x="140.984" y="247.332" width="6.82968" height="64.3941" fill="#88CA69"/>
<rect x="140.984" y="321.483" width="6.82968" height="64.3941" fill="#88CA69"/>
<rect x="140.984" y="395.634" width="6.82968" height="64.3941" fill="#88CA69"/>
<rect x="154.644" y="247.332" width="6.82968" height="64.3941" fill="#88CA69"/>
<rect x="154.644" y="321.483" width="6.82968" height="64.3941" fill="#88CA69"/>
<rect x="154.644" y="395.634" width="6.82968" height="64.3941" fill="#88CA69"/>
<rect x="168.303" y="247.332" width="6.82968" height="64.3941" fill="#88CA69"/>
<rect x="168.303" y="321.483" width="6.82968" height="64.3941" fill="#88CA69"/>
<rect x="168.303" y="395.634" width="6.82968" height="64.3941" fill="#88CA69"/>
<rect x="261.967" y="164.4" width="84.7712" height="310.263" rx="10" fill="#6A9F52"/>
<rect x="273.835" y="185.593" width="10.1725" height="23.7359" rx="4" fill="#88CA69"/>
<rect x="273.835" y="222.892" width="10.1725" height="23.7359" rx="4" fill="#88CA69"/>
<rect x="273.835" y="260.192" width="10.1725" height="23.7359" rx="4" fill="#88CA69"/>
<rect x="273.835" y="297.491" width="10.1725" height="23.7359" rx="4" fill="#88CA69"/>
<rect x="273.835" y="334.79" width="10.1725" height="23.7359" rx="4" fill="#88CA69"/>
<rect x="273.835" y="372.09" width="10.1725" height="23.7359" rx="4" fill="#88CA69"/>
<rect x="273.835" y="409.389" width="10.1725" height="23.7359" rx="4" fill="#88CA69"/>
<rect x="290.789" y="185.593" width="10.1725" height="23.7359" rx="4" fill="#88CA69"/>
<rect x="290.789" y="222.892" width="10.1725" height="23.7359" rx="4" fill="#88CA69"/>
<rect x="290.789" y="260.192" width="10.1725" height="23.7359" rx="4" fill="#88CA69"/>
<rect x="290.789" y="297.491" width="10.1725" height="23.7359" rx="4" fill="#88CA69"/>
<rect x="290.789" y="334.79" width="10.1725" height="23.7359" rx="4" fill="#88CA69"/>
<rect x="290.789" y="372.09" width="10.1725" height="23.7359" rx="4" fill="#88CA69"/>
<rect x="290.789" y="409.389" width="10.1725" height="23.7359" rx="4" fill="#88CA69"/>
<rect x="307.744" y="185.593" width="10.1725" height="23.7359" rx="4" fill="#88CA69"/>
<rect x="307.744" y="222.892" width="10.1725" height="23.7359" rx="4" fill="#88CA69"/>
<rect x="307.744" y="260.192" width="10.1725" height="23.7359" rx="4" fill="#88CA69"/>
<rect x="307.744" y="297.491" width="10.1725" height="23.7359" rx="4" fill="#88CA69"/>
<rect x="307.744" y="334.79" width="10.1725" height="23.7359" rx="4" fill="#88CA69"/>
<rect x="307.744" y="372.09" width="10.1725" height="23.7359" rx="4" fill="#88CA69"/>
<rect x="307.744" y="409.389" width="10.1725" height="23.7359" rx="4" fill="#88CA69"/>
<rect x="324.698" y="185.593" width="10.1725" height="23.7359" rx="4" fill="#88CA69"/>
<rect x="324.698" y="222.892" width="10.1725" height="23.7359" rx="4" fill="#88CA69"/>
<rect x="324.698" y="260.192" width="10.1725" height="23.7359" rx="4" fill="#88CA69"/>
<rect x="324.698" y="297.491" width="10.1725" height="23.7359" rx="4" fill="#88CA69"/>
<rect x="324.698" y="334.79" width="10.1725" height="23.7359" rx="4" fill="#88CA69"/>
<rect x="324.698" y="372.09" width="10.1725" height="23.7359" rx="4" fill="#88CA69"/>
<rect x="324.698" y="409.389" width="10.1725" height="23.7359" rx="4" fill="#88CA69"/>
</g>
<defs>
<linearGradient id="paint0_linear" x1="180" y1="54.5" x2="184.5" y2="343" gradientUnits="userSpaceOnUse">
<stop stop-color="#88CA69"/>
<stop offset="1" stop-color="#76B659"/>
</linearGradient>
</defs>
</svg>
